<svg width="51" height="51" viewBox="0 0 51 51" fill="none" xmlns="http://www.w3.org/2000/svg">
<path d="M28.6875 13.5469V0H8.76562C7.44082 0 6.375 1.06582 6.375 2.39062V48.6094C6.375 49.9342 7.44082 51 8.76562 51H42.2344C43.5592 51 44.625 49.9342 44.625 48.6094V15.9375H31.0781C29.7633 15.9375 28.6875 14.8617 28.6875 13.5469ZM35.18 35.0635H28.6875V43.0322C28.6875 43.9128 27.9743 44.626 27.0938 44.626H23.9062C23.0257 44.626 22.3125 43.9128 22.3125 43.0322V35.0635H15.82C14.3975 35.0635 13.6873 33.3412 14.6974 32.3382L24.3017 22.8056C24.9641 22.1471 26.0339 22.1471 26.6963 22.8056L36.3006 32.3382C37.3117 33.3412 36.6025 35.0635 35.18 35.0635ZM43.9277 10.459L34.176 0.697266C33.7277 0.249023 33.1201 0 32.4826 0H31.875V12.75H44.625V12.1424C44.625 11.5148 44.376 10.9072 43.9277 10.459Z" fill="black"/>
</svg>
