<svg width="7" height="21" viewBox="0 0 7 21" fill="none" xmlns="http://www.w3.org/2000/svg">
<path d="M3.52583 7.54673C5.15819 7.56095 6.46734 8.8931 6.45312 10.5255C6.4389 12.1578 5.10674 13.467 3.47438 13.4528C1.84202 13.4385 0.532875 12.1064 0.547093 10.474C0.561312 8.84166 1.89347 7.53251 3.52583 7.54673ZM0.609969 3.25554C0.595751 4.8879 1.9049 6.22006 3.53726 6.23428C5.16962 6.2485 6.50178 4.93935 6.516 3.30699C6.53021 1.67463 5.22106 0.342469 3.5887 0.328251C1.95634 0.314032 0.624187 1.62318 0.609969 3.25554ZM0.484218 17.6925C0.469999 19.3249 1.77915 20.657 3.41151 20.6712C5.04387 20.6854 6.37603 19.3763 6.39024 17.7439C6.40446 16.1116 5.09531 14.7794 3.46295 14.7652C1.83059 14.751 0.498436 16.0601 0.484218 17.6925Z" fill="#666666"/>
</svg>
