<svg width="18" height="18" viewBox="0 0 18 18" fill="none" xmlns="http://www.w3.org/2000/svg">
<path d="M17.6176 13.91L13.501 9.79358C12.6889 8.98155 11.4761 8.82336 10.4988 9.30495L6.75138 5.55766V3.37467L2.25163 0L0.00175769 2.24978L3.37657 6.74934H5.55965L9.3071 10.4966C8.829 11.4739 8.98368 12.6867 9.79574 13.4987L13.9123 17.6151C14.4256 18.1283 15.2552 18.1283 15.7649 17.6151L17.6176 15.7625C18.1273 15.2493 18.1273 14.4197 17.6176 13.91ZM11.6624 7.90938C12.6573 7.90938 13.5924 8.29607 14.2955 8.99912L14.9775 9.68109C15.5329 9.43853 16.0602 9.10106 16.5172 8.64408C17.8215 7.33991 18.2644 5.50493 17.8496 3.83869C17.7723 3.52231 17.375 3.41334 17.143 3.64535L14.5275 6.26072L12.1405 5.86349L11.7433 3.47661L14.3588 0.861244C14.5908 0.629235 14.4783 0.232009 14.1584 0.151157C12.4921 -0.260131 10.657 0.182795 9.35632 1.48345C8.35442 2.4853 7.88335 3.80705 7.90796 5.12528L10.7941 8.01133C11.0789 7.94454 11.3742 7.90938 11.6624 7.90938ZM8.00991 10.7919L6.01666 8.79875L0.659143 14.1596C-0.219714 15.0384 -0.219714 16.4621 0.659143 17.3409C1.538 18.2197 2.96175 18.2197 3.84061 17.3409L8.18568 12.996C7.91851 12.2965 7.83765 11.5336 8.00991 10.7919ZM2.25163 16.5921C1.7876 16.5921 1.40793 16.2125 1.40793 15.7485C1.40793 15.2809 1.78408 14.9048 2.25163 14.9048C2.71918 14.9048 3.09534 15.2809 3.09534 15.7485C3.09534 16.2125 2.71918 16.5921 2.25163 16.5921Z" fill="#FE7F2E"/>
</svg>
