<svg width="20" height="19" viewBox="0 0 20 19" fill="none" xmlns="http://www.w3.org/2000/svg">
<path d="M18.5448 9.50275C18.2929 9.50275 18.0513 9.60281 17.8732 9.78092C17.6951 9.95903 17.595 10.2006 17.595 10.4525V16.1508C17.595 16.4027 17.495 16.6443 17.3169 16.8224C17.1388 17.0005 16.8972 17.1006 16.6453 17.1006H3.34917C3.09729 17.1006 2.85573 17.0005 2.67762 16.8224C2.49951 16.6443 2.39945 16.4027 2.39945 16.1508V2.85468C2.39945 2.6028 2.49951 2.36123 2.67762 2.18312C2.85573 2.00502 3.09729 1.90496 3.34917 1.90496H9.04752C9.29941 1.90496 9.54097 1.8049 9.71908 1.62679C9.89719 1.44868 9.99725 1.20711 9.99725 0.955231C9.99725 0.703349 9.89719 0.461783 9.71908 0.283675C9.54097 0.105567 9.29941 0.00550683 9.04752 0.00550683H3.34917C2.59353 0.00550683 1.86883 0.305687 1.3345 0.840011C0.80018 1.37433 0.5 2.09903 0.5 2.85468V16.1508C0.5 16.9065 0.80018 17.6312 1.3345 18.1655C1.86883 18.6998 2.59353 19 3.34917 19H16.6453C17.401 19 18.1257 18.6998 18.66 18.1655C19.1943 17.6312 19.4945 16.9065 19.4945 16.1508V10.4525C19.4945 10.2006 19.3944 9.95903 19.2163 9.78092C19.0382 9.60281 18.7967 9.50275 18.5448 9.50275ZM4.2989 10.2245V14.2514C4.2989 14.5033 4.39896 14.7448 4.57707 14.9229C4.75517 15.101 4.99674 15.2011 5.24862 15.2011H9.27546C9.40045 15.2018 9.52435 15.1779 9.64006 15.1306C9.75577 15.0833 9.86102 15.0137 9.94976 14.9257L16.5219 8.34409L19.2191 5.70386C19.3081 5.61557 19.3787 5.51053 19.427 5.39479C19.4752 5.27906 19.5 5.15493 19.5 5.02955C19.5 4.90418 19.4752 4.78004 19.427 4.66431C19.3787 4.54858 19.3081 4.44353 19.2191 4.35525L15.1922 0.280927C15.104 0.191911 14.9989 0.121257 14.8832 0.0730404C14.7674 0.0248241 14.6433 0 14.5179 0C14.3926 0 14.2684 0.0248241 14.1527 0.0730404C14.037 0.121257 13.9319 0.191911 13.8436 0.280927L11.1654 2.96865L4.57432 9.55024C4.4863 9.63898 4.41666 9.74423 4.3694 9.85994C4.32213 9.97565 4.29818 10.0996 4.2989 10.2245ZM14.5179 2.29434L17.2057 4.98206L15.857 6.33067L13.1693 3.64295L14.5179 2.29434ZM6.19835 10.6139L11.8302 4.98206L14.5179 7.66978L8.88607 13.3017H6.19835V10.6139Z" fill="#2D3442"/>
</svg>
