<svg width="19" height="21" viewBox="0 0 19 21" fill="none" xmlns="http://www.w3.org/2000/svg">
<path d="M9.20752 0.499512C10.2985 0.499512 11.3245 0.791512 12.2075 1.30351C12.327 1.36603 12.4326 1.45207 12.518 1.55646C12.6034 1.66086 12.6668 1.78145 12.7044 1.91097C12.742 2.0405 12.753 2.17629 12.7367 2.31018C12.7204 2.44406 12.6773 2.57327 12.6098 2.69004C12.5423 2.80681 12.4519 2.90871 12.344 2.98963C12.2361 3.07054 12.1129 3.1288 11.9819 3.16088C11.8509 3.19297 11.7148 3.19823 11.5817 3.17634C11.4486 3.15445 11.3213 3.10587 11.2075 3.03351C10.5993 2.68236 9.90935 2.49753 9.20704 2.49761C8.50474 2.4977 7.81483 2.68269 7.2067 3.03399C6.59856 3.38528 6.09364 3.89051 5.74271 4.49885C5.39177 5.10719 5.20719 5.7972 5.20752 6.49951L16.2075 6.50051C16.738 6.50051 17.2467 6.71123 17.6217 7.0863C17.9968 7.46137 18.2075 7.97008 18.2075 8.50051V18.5005C18.2075 19.0309 17.9968 19.5397 17.6217 19.9147C17.2467 20.2898 16.738 20.5005 16.2075 20.5005H2.20752C1.67709 20.5005 1.16838 20.2898 0.793306 19.9147C0.418233 19.5397 0.20752 19.0309 0.20752 18.5005V8.49951C0.20752 7.96908 0.418233 7.46037 0.793306 7.0853C1.16838 6.71023 1.67709 6.49951 2.20752 6.49951H3.20752C3.20752 4.90821 3.83966 3.38209 4.96488 2.25687C6.0901 1.13165 7.61622 0.499512 9.20752 0.499512ZM16.2075 8.49951H2.20752V18.4995H16.2075V8.49951ZM9.20752 10.4995C9.63411 10.4996 10.0495 10.6362 10.393 10.8892C10.7364 11.1421 10.99 11.4983 11.1167 11.9057C11.2434 12.313 11.2365 12.7502 11.097 13.1534C10.9575 13.5565 10.6928 13.9045 10.3415 14.1465L10.2075 14.2315V15.4995C10.2072 15.7544 10.1096 15.9995 9.93467 16.1849C9.7597 16.3702 9.52057 16.4817 9.26612 16.4967C9.01168 16.5116 8.76114 16.4288 8.56569 16.2652C8.37023 16.1017 8.24462 15.8696 8.21452 15.6165L8.20752 15.4995V14.2315C7.82626 14.0114 7.52829 13.6716 7.35983 13.2648C7.19136 12.8581 7.16181 12.4071 7.27576 11.9819C7.3897 11.5566 7.64078 11.1808 7.99005 10.9128C8.33932 10.6448 8.76727 10.4995 9.20752 10.4995ZM17.1255 3.52051L18.0915 3.78051C18.3378 3.85762 18.5448 4.02696 18.6691 4.25314C18.7934 4.47931 18.8255 4.74479 18.7586 4.99406C18.6917 5.24333 18.531 5.45708 18.3101 5.59061C18.0893 5.72413 17.8253 5.7671 17.5735 5.71051L16.6085 5.45251C16.3534 5.38297 16.1362 5.21523 16.0045 4.98598C15.8728 4.75673 15.8372 4.48464 15.9055 4.22921C15.9739 3.97379 16.1406 3.75584 16.3692 3.62302C16.5979 3.49021 16.8698 3.45335 17.1255 3.52051ZM15.8405 0.589512C15.9674 0.62351 16.0863 0.682168 16.1905 0.762133C16.2947 0.842099 16.3821 0.941807 16.4478 1.05556C16.5134 1.16932 16.556 1.29489 16.5731 1.42511C16.5903 1.55534 16.5815 1.68765 16.5475 1.81451L16.4185 2.29651C16.3851 2.42391 16.3268 2.54344 16.247 2.64824C16.1672 2.75304 16.0675 2.84105 15.9536 2.90721C15.8397 2.97337 15.7139 3.01638 15.5833 3.03377C15.4528 3.05115 15.32 3.04258 15.1928 3.00853C15.0656 2.97448 14.9463 2.91563 14.8419 2.83536C14.7375 2.75509 14.6499 2.65498 14.5843 2.54078C14.5187 2.42658 14.4762 2.30054 14.4595 2.1699C14.4427 2.03926 14.4519 1.90659 14.4865 1.77951L14.6165 1.29651C14.6852 1.04052 14.8527 0.822258 15.0822 0.68969C15.3117 0.557122 15.5845 0.52109 15.8405 0.589512Z" fill="#2D3442"/>
</svg>
