<svg width="21" height="21" viewBox="0 0 21 21" fill="none" xmlns="http://www.w3.org/2000/svg">
<path d="M1.5 5.1H3.5M3.5 5.1H19.5M3.5 5.1L3.49998 17.7C3.49998 18.1774 3.71069 18.6352 4.08577 18.9728C4.46084 19.3104 4.96955 19.5 5.49998 19.5H15.5C16.0304 19.5 16.5391 19.3104 16.9142 18.9728C17.2893 18.6352 17.5 18.1774 17.5 17.7V5.1M6.49998 5.1V3.3C6.49998 2.82261 6.71069 2.36477 7.08577 2.02721C7.46084 1.68964 7.96955 1.5 8.49998 1.5H12.5C13.0304 1.5 13.5391 1.68964 13.9142 2.02721C14.2893 2.36477 14.5 2.82261 14.5 3.3V5.1M8.49985 9.6V15M12.5002 9.6V15" stroke="#44494D" stroke-width="1.5" stroke-linecap="round" stroke-linejoin="round"/>
</svg>
