<svg width="12" height="15" viewBox="0 0 12 15" fill="none" xmlns="http://www.w3.org/2000/svg">
<path d="M12 3.57249V3.75H8V0H8.18934C8.38825 9.74989e-07 8.57901 0.0740749 8.71966 0.205928L11.7803 3.07529C11.921 3.20716 12 3.386 12 3.57249ZM7.75 4.6875C7.3375 4.6875 7 4.37109 7 3.98438V0H0.75C0.335781 0 0 0.314795 0 0.703125V14.2969C0 14.6852 0.335781 15 0.75 15H11.25C11.6642 15 12 14.6852 12 14.2969V4.6875H7.75ZM3.51703 5.15625C4.34547 5.15625 5.01703 5.78584 5.01703 6.5625C5.01703 7.33916 4.34547 7.96875 3.51703 7.96875C2.68859 7.96875 2.01703 7.33916 2.01703 6.5625C2.01703 5.78584 2.68862 5.15625 3.51703 5.15625ZM10.017 12.1875H2.01703L2.03219 10.767L3.26703 9.60938C3.41347 9.47209 3.63575 9.4863 3.78219 9.62358L5.01703 10.7812L8.25187 7.74858C8.39831 7.6113 8.63575 7.6113 8.78222 7.74858L10.017 8.90625V12.1875Z" fill="#44494D"/>
</svg>
