<svg width="19" height="19" viewBox="0 0 19 19" fill="none" xmlns="http://www.w3.org/2000/svg">
<path d="M18.0448 9.50275C17.7929 9.50275 17.5513 9.60281 17.3732 9.78092C17.1951 9.95903 17.095 10.2006 17.095 10.4525V16.1508C17.095 16.4027 16.995 16.6443 16.8169 16.8224C16.6388 17.0005 16.3972 17.1006 16.1453 17.1006H2.84917C2.59729 17.1006 2.35573 17.0005 2.17762 16.8224C1.99951 16.6443 1.89945 16.4027 1.89945 16.1508V2.85468C1.89945 2.6028 1.99951 2.36123 2.17762 2.18312C2.35573 2.00502 2.59729 1.90496 2.84917 1.90496H8.54752C8.79941 1.90496 9.04097 1.8049 9.21908 1.62679C9.39719 1.44868 9.49725 1.20711 9.49725 0.955231C9.49725 0.703349 9.39719 0.461783 9.21908 0.283675C9.04097 0.105567 8.79941 0.00550683 8.54752 0.00550683H2.84917C2.09353 0.00550683 1.36883 0.305687 0.834504 0.840011C0.30018 1.37433 0 2.09903 0 2.85468V16.1508C0 16.9065 0.30018 17.6312 0.834504 18.1655C1.36883 18.6998 2.09353 19 2.84917 19H16.1453C16.901 19 17.6257 18.6998 18.16 18.1655C18.6943 17.6312 18.9945 16.9065 18.9945 16.1508V10.4525C18.9945 10.2006 18.8944 9.95903 18.7163 9.78092C18.5382 9.60281 18.2967 9.50275 18.0448 9.50275ZM3.7989 10.2245V14.2514C3.7989 14.5033 3.89896 14.7448 4.07707 14.9229C4.25517 15.101 4.49674 15.2011 4.74862 15.2011H8.77546C8.90045 15.2018 9.02435 15.1779 9.14006 15.1306C9.25577 15.0833 9.36102 15.0137 9.44976 14.9257L16.0219 8.34409L18.7191 5.70386C18.8081 5.61557 18.8787 5.51053 18.927 5.39479C18.9752 5.27906 19 5.15493 19 5.02955C19 4.90418 18.9752 4.78004 18.927 4.66431C18.8787 4.54858 18.8081 4.44353 18.7191 4.35525L14.6922 0.280927C14.604 0.191911 14.4989 0.121257 14.3832 0.0730404C14.2674 0.0248241 14.1433 0 14.0179 0C13.8926 0 13.7684 0.0248241 13.6527 0.0730404C13.537 0.121257 13.4319 0.191911 13.3436 0.280927L10.6654 2.96865L4.07432 9.55024C3.9863 9.63898 3.91666 9.74423 3.8694 9.85994C3.82213 9.97565 3.79818 10.0996 3.7989 10.2245ZM14.0179 2.29434L16.7057 4.98206L15.357 6.33067L12.6693 3.64295L14.0179 2.29434ZM5.69835 10.6139L11.3302 4.98206L14.0179 7.66978L8.38607 13.3017H5.69835V10.6139Z" fill="#0965BA"/>
</svg>
