<svg width="21" height="21" viewBox="0 0 21 21" fill="none" xmlns="http://www.w3.org/2000/svg">
<path d="M5.5 0.5C4.12109 0.5 3 1.62109 3 3V18C3 19.3789 4.12109 20.5 5.5 20.5H15.5C16.8789 20.5 18 19.3789 18 18V6.75H13C12.3086 6.75 11.75 6.19141 11.75 5.5V0.5H5.5ZM13 0.5V5.5H18L13 0.5ZM6.125 3H8.625C8.96875 3 9.25 3.28125 9.25 3.625C9.25 3.96875 8.96875 4.25 8.625 4.25H6.125C5.78125 4.25 5.5 3.96875 5.5 3.625C5.5 3.28125 5.78125 3 6.125 3ZM6.125 5.5H8.625C8.96875 5.5 9.25 5.78125 9.25 6.125C9.25 6.46875 8.96875 6.75 8.625 6.75H6.125C5.78125 6.75 5.5 6.46875 5.5 6.125C5.5 5.78125 5.78125 5.5 6.125 5.5ZM8.24219 15.4141C8.00391 16.207 7.27344 16.75 6.44531 16.75H6.125C5.78125 16.75 5.5 16.4688 5.5 16.125C5.5 15.7812 5.78125 15.5 6.125 15.5H6.44531C6.72266 15.5 6.96484 15.3203 7.04297 15.0547L7.625 13.1211C7.75781 12.6797 8.16406 12.375 8.625 12.375C9.08594 12.375 9.49219 12.6758 9.625 13.1211L10.0781 14.6289C10.3672 14.3867 10.7344 14.25 11.125 14.25C11.7461 14.25 12.3125 14.6016 12.5898 15.1562L12.7617 15.5H14.875C15.2188 15.5 15.5 15.7812 15.5 16.125C15.5 16.4688 15.2188 16.75 14.875 16.75H12.375C12.1367 16.75 11.9219 16.6172 11.8164 16.4062L11.4727 15.7148C11.4062 15.582 11.2734 15.5 11.1289 15.5C10.9844 15.5 10.8477 15.582 10.7852 15.7148L10.4414 16.4062C10.3281 16.6367 10.082 16.7734 9.82812 16.75C9.57422 16.7266 9.35547 16.5508 9.28516 16.3086L8.625 14.1328L8.24219 15.4141Z" fill="#00A1E4"/>
</svg>
