<svg width="21" height="21" viewBox="0 0 21 21" fill="none" xmlns="http://www.w3.org/2000/svg">
<path d="M20.8731 9.96772C18.896 6.11006 14.9818 3.5 10.5 3.5C6.01817 3.5 2.1029 6.11188 0.126855 9.96809C0.0434538 10.1331 0 10.3153 0 10.5002C0 10.6851 0.0434538 10.8673 0.126855 11.0323C2.10399 14.89 6.01817 17.5 10.5 17.5C14.9818 17.5 18.8971 14.8881 20.8731 11.0319C20.9565 10.867 21 10.6847 21 10.4998C21 10.315 20.9565 10.1327 20.8731 9.96772ZM10.5 15.75C9.46165 15.75 8.44661 15.4421 7.58325 14.8652C6.71989 14.2884 6.04698 13.4684 5.64962 12.5091C5.25226 11.5498 5.14829 10.4942 5.35087 9.47579C5.55344 8.45739 6.05345 7.52192 6.78768 6.7877C7.52191 6.05347 8.45737 5.55345 9.47577 5.35088C10.4942 5.14831 11.5498 5.25228 12.5091 5.64964C13.4684 6.047 14.2883 6.7199 14.8652 7.58326C15.4421 8.44662 15.75 9.46166 15.75 10.5C15.7503 11.1895 15.6148 11.8724 15.3511 12.5095C15.0873 13.1466 14.7006 13.7255 14.2131 14.2131C13.7255 14.7007 13.1466 15.0874 12.5095 15.3511C11.8724 15.6148 11.1895 15.7504 10.5 15.75ZM10.5 7.00001C10.1876 7.00437 9.87721 7.05085 9.57724 7.13818C9.82451 7.47421 9.94316 7.88773 9.91169 8.30374C9.88022 8.71975 9.70071 9.11071 9.4057 9.40571C9.1107 9.70072 8.71974 9.88024 8.30373 9.91171C7.88771 9.94318 7.4742 9.82452 7.13817 9.57725C6.94682 10.2822 6.98137 11.0294 7.23693 11.7137C7.49249 12.398 7.95622 12.9849 8.56282 13.3919C9.16943 13.7988 9.88838 14.0053 10.6185 13.9822C11.3486 13.9592 12.0531 13.7077 12.6328 13.2633C13.2125 12.8189 13.6382 12.2039 13.8501 11.5048C14.062 10.8057 14.0493 10.0578 13.8138 9.36637C13.5784 8.67489 13.132 8.07467 12.5375 7.65017C11.9431 7.22568 11.2305 6.99829 10.5 7.00001Z" fill="#00A1E4"/>
</svg>
