<svg width="20" height="20" viewBox="0 0 20 20" fill="none" xmlns="http://www.w3.org/2000/svg">
<path d="M19.25 8H15V2.75C15 2.33562 14.6644 2 14.25 2H9.75C9.33562 2 9 2.33562 9 2.75V5H7V2.5C7 2.22375 6.77625 2 6.5 2H6C5.72375 2 5.5 2.22375 5.5 2.5V5H3.5V2.5C3.5 2.22375 3.27625 2 3 2H2.5C2.22375 2 2 2.22375 2 2.5V5H0.75C0.335625 5 0 5.33562 0 5.75V17C0 17.5522 0.447812 18 1 18H19C19.5522 18 20 17.5522 20 17V8.75C20 8.33563 19.6641 8 19.25 8ZM4 14.625C4 14.8322 3.83219 15 3.625 15H2.375C2.16781 15 2 14.8322 2 14.625V13.375C2 13.1678 2.16781 13 2.375 13H3.625C3.83219 13 4 13.1678 4 13.375V14.625ZM4 11.625C4 11.8322 3.83219 12 3.625 12H2.375C2.16781 12 2 11.8322 2 11.625V10.375C2 10.1678 2.16781 10 2.375 10H3.625C3.83219 10 4 10.1678 4 10.375V11.625ZM4 8.625C4 8.83219 3.83219 9 3.625 9H2.375C2.16781 9 2 8.83219 2 8.625V7.375C2 7.16781 2.16781 7 2.375 7H3.625C3.83219 7 4 7.16781 4 7.375V8.625ZM8 14.625C8 14.8322 7.83219 15 7.625 15H6.375C6.16781 15 6 14.8322 6 14.625V13.375C6 13.1678 6.16781 13 6.375 13H7.625C7.83219 13 8 13.1678 8 13.375V14.625ZM8 11.625C8 11.8322 7.83219 12 7.625 12H6.375C6.16781 12 6 11.8322 6 11.625V10.375C6 10.1678 6.16781 10 6.375 10H7.625C7.83219 10 8 10.1678 8 10.375V11.625ZM8 8.625C8 8.83219 7.83219 9 7.625 9H6.375C6.16781 9 6 8.83219 6 8.625V7.375C6 7.16781 6.16781 7 6.375 7H7.625C7.83219 7 8 7.16781 8 7.375V8.625ZM13 11.625C13 11.8322 12.8322 12 12.625 12H11.375C11.1678 12 11 11.8322 11 11.625V10.375C11 10.1678 11.1678 10 11.375 10H12.625C12.8322 10 13 10.1678 13 10.375V11.625ZM13 8.625C13 8.83219 12.8322 9 12.625 9H11.375C11.1678 9 11 8.83219 11 8.625V7.375C11 7.16781 11.1678 7 11.375 7H12.625C12.8322 7 13 7.16781 13 7.375V8.625ZM13 5.625C13 5.83219 12.8322 6 12.625 6H11.375C11.1678 6 11 5.83219 11 5.625V4.375C11 4.16781 11.1678 4 11.375 4H12.625C12.8322 4 13 4.16781 13 4.375V5.625ZM18 14.625C18 14.8322 17.8322 15 17.625 15H16.375C16.1678 15 16 14.8322 16 14.625V13.375C16 13.1678 16.1678 13 16.375 13H17.625C17.8322 13 18 13.1678 18 13.375V14.625ZM18 11.625C18 11.8322 17.8322 12 17.625 12H16.375C16.1678 12 16 11.8322 16 11.625V10.375C16 10.1678 16.1678 10 16.375 10H17.625C17.8322 10 18 10.1678 18 10.375V11.625Z" fill="#F8ADAD"/>
</svg>
