<svg width="20" height="21" viewBox="0 0 20 21" fill="none" xmlns="http://www.w3.org/2000/svg">
<path d="M18.9682 0.5L12.6311 2.87197L14.9054 4.30116C10.8426 9.40079 4.96561 12.542 0 13.7376L1.40671 16.2917C6.98624 14.479 12.8934 11.2092 16.6982 5.4325L18.4308 6.521L18.9682 0.5ZM19.2992 5.50107L19.0929 7.84947L16.8874 6.461C16.81 6.57671 16.7283 6.68813 16.6466 6.80383V20.5H20V5.50107H19.2992ZM12.8246 10.9864C12.2786 11.4578 11.7154 11.9035 11.1436 12.3234V20.5H14.497V10.9864H12.8246ZM7.50645 14.5861C6.88736 14.9118 6.26827 15.2118 5.64058 15.4946V20.5H8.99398V14.5861H7.50645ZM0.137575 16.4717V20.5H3.49097V16.4717H3.24678C2.60963 16.7074 1.97292 16.926 1.34007 17.1274L1.03654 17.2217L0.623818 16.4717H0.137575Z" fill="#F8ADAD"/>
</svg>
