<svg width="20" height="20" viewBox="0 0 20 20" fill="none" xmlns="http://www.w3.org/2000/svg">
<path d="M18.75 2.85715V4.64285C18.75 6.21652 14.8307 7.5 10 7.5C5.16926 7.5 1.25 6.21652 1.25 4.64285V2.85715C1.25 1.28348 5.16926 0 10 0C14.8307 0 18.75 1.28348 18.75 2.85715ZM18.75 6.875V10.8929C18.75 12.4665 14.8307 13.75 10 13.75C5.16926 13.75 1.25 12.4665 1.25 10.8929V6.875C3.12988 8.16965 6.57062 8.77234 10 8.77234C13.4294 8.77234 16.8701 8.16965 18.75 6.875ZM18.75 13.125V17.1429C18.75 18.7165 14.8307 20 10 20C5.16926 20 1.25 18.7165 1.25 17.1429V13.125C3.12988 14.4196 6.57062 15.0223 10 15.0223C13.4294 15.0223 16.8701 14.4196 18.75 13.125Z" fill="#F8ADAD"/>
</svg>
