<svg width="21" height="21" viewBox="0 0 21 21" fill="none" xmlns="http://www.w3.org/2000/svg">
<path d="M10.5 0C4.70104 0 0 4.70099 0 10.5C0 16.299 4.70104 21 10.5 21C16.299 21 21 16.299 21 10.5C21 4.70104 16.299 0 10.5 0ZM16.0086 4.99139C18.7796 7.76238 18.9723 11.9976 16.884 14.968L6.032 4.116C9.00434 2.02633 13.2391 2.22198 16.0086 4.99139ZM4.99139 16.0086C2.22041 13.2376 2.02769 9.00235 4.11596 6.03204L14.968 16.884C11.9957 18.9737 7.76086 18.7781 4.99139 16.0086Z" fill="#C03221"/>
</svg>
