<svg width="21" height="21" viewBox="0 0 21 21" fill="none" xmlns="http://www.w3.org/2000/svg">
<path d="M3.5 6H5.05556H17.5" stroke="#8A92A6" stroke-width="1.5" stroke-linecap="round" stroke-linejoin="round"/>
<path d="M15.9446 6V16.5C15.9446 16.8978 15.7807 17.2794 15.4889 17.5607C15.1972 17.842 14.8016 18 14.389 18H6.61122C6.19866 18 5.803 17.842 5.51128 17.5607C5.21955 17.2794 5.05566 16.8978 5.05566 16.5V6M7.389 6V4.5C7.389 4.10218 7.55289 3.72064 7.84461 3.43934C8.13633 3.15804 8.53199 3 8.94455 3H12.0557C12.4682 3 12.8639 3.15804 13.1556 3.43934C13.4473 3.72064 13.6112 4.10218 13.6112 4.5V6" stroke="#8A92A6" stroke-width="1.5" stroke-linecap="round" stroke-linejoin="round"/>
<path d="M8.94434 9.75V14.25" stroke="#8A92A6" stroke-width="1.5" stroke-linecap="round" stroke-linejoin="round"/>
<path d="M12.0557 9.75V14.25" stroke="#8A92A6" stroke-width="1.5" stroke-linecap="round" stroke-linejoin="round"/>
</svg>
