<svg width="26" height="20" viewBox="0 0 26 20" fill="none" xmlns="http://www.w3.org/2000/svg">
<path d="M10.3865 13.125C10.3865 12.493 10.438 12.784 7.06343 6.03477C6.37397 4.65625 4.39975 4.65352 3.70913 6.03477C0.306004 12.8418 0.387254 12.5129 0.387254 13.125C0.387254 14.8508 2.62514 16.25 5.38647 16.25C8.1478 16.25 10.3865 14.8508 10.3865 13.125ZM5.38647 6.875L8.19897 12.5H2.57397L5.38647 6.875ZM25.3857 13.125C25.3857 12.493 25.438 12.784 22.0634 6.03477C21.374 4.65625 19.3998 4.65352 18.7091 6.03477C15.306 12.8418 15.3873 12.5129 15.3873 13.125C15.3873 14.8508 17.6251 16.25 20.3865 16.25C23.1478 16.25 25.3857 14.8508 25.3857 13.125ZM17.574 12.5L20.3865 6.875L23.199 12.5H17.574ZM21.0115 17.5H14.1365V5.98633C15.0548 5.58437 15.7443 4.75664 15.9486 3.75H21.0115C21.3568 3.75 21.6365 3.47031 21.6365 3.125V1.875C21.6365 1.52969 21.3568 1.25 21.0115 1.25H15.3724C14.8021 0.495313 13.9056 0 12.8865 0C11.8673 0 10.9708 0.495313 10.4005 1.25H4.76147C4.41616 1.25 4.13647 1.52969 4.13647 1.875V3.125C4.13647 3.47031 4.41616 3.75 4.76147 3.75H9.82436C10.0287 4.75625 10.7177 5.58437 11.6365 5.98633V17.5H4.76147C4.41616 17.5 4.13647 17.7797 4.13647 18.125V19.375C4.13647 19.7203 4.41616 20 4.76147 20H21.0115C21.3568 20 21.6365 19.7203 21.6365 19.375V18.125C21.6365 17.7797 21.3568 17.5 21.0115 17.5Z" fill="#00A1E4"/>
</svg>
