<svg width="73" height="64" viewBox="0 0 73 64" fill="none" xmlns="http://www.w3.org/2000/svg">
<path d="M13.9902 50.6667C12.6442 50.6667 11.4922 50.2444 10.5343 49.4C9.57434 48.5573 9.09436 47.544 9.09436 46.36V12.3067C9.09436 11.1227 9.57434 10.1093 10.5343 9.26667C11.4922 8.42222 12.6442 8 13.9902 8H38.2418C39.5898 8 40.7427 8.42222 41.7007 9.26667C42.6606 10.1093 43.1406 11.1227 43.1406 12.3067V20.8533C42.6232 20.9422 42.1099 21.04 41.6006 21.1467C41.0893 21.2533 40.5922 21.3831 40.1091 21.536V12.3093C40.1091 11.8311 39.9343 11.4382 39.5847 11.1307C39.2351 10.8231 38.7874 10.6684 38.2418 10.6667H13.9902C13.4465 10.6667 12.9999 10.8204 12.6503 11.128C12.3006 11.4356 12.1258 11.8284 12.1258 12.3067V46.36C12.1258 46.8382 12.3006 47.2311 12.6503 47.5387C12.9999 47.8462 13.4465 48 13.9902 48H23.7848V50.6667H13.9902ZM23.7848 44.0347V41.9493C23.7848 41.8356 23.7878 41.7253 23.7939 41.6187C23.7999 41.512 23.8141 41.4018 23.8363 41.288C22.5671 40.8613 21.5223 40.1547 20.7018 39.168C19.8813 38.1849 19.471 37.0604 19.471 35.7947C19.471 34.1716 20.1177 32.7911 21.4111 31.6533C22.7025 30.5156 24.2708 29.9467 26.116 29.9467C26.3686 29.9467 26.5929 29.9609 26.7889 29.9893C26.983 30.0178 27.2053 30.0587 27.4559 30.112C27.7691 29.7227 28.0793 29.3316 28.3865 28.9387C28.6937 28.5476 29.0201 28.1733 29.3657 27.816C28.8806 27.656 28.3653 27.5271 27.8196 27.4293C27.274 27.3316 26.7061 27.2827 26.116 27.2827C23.4442 27.2827 21.1636 28.1138 19.274 29.776C17.3844 31.4382 16.4396 33.4444 16.4396 35.7947C16.4396 37.8196 17.1368 39.5849 18.5313 41.0907C19.9237 42.5964 21.6749 43.5778 23.7848 44.0347ZM26.1251 22.6667C27.2265 22.6667 28.1612 22.3271 28.9291 21.648C29.6971 20.9689 30.0811 20.144 30.0811 19.1733C30.0811 18.2027 29.6951 17.3796 28.9231 16.704C28.1511 16.0284 27.2133 15.6907 26.1099 15.6907C25.0064 15.6907 24.0718 16.0311 23.3058 16.712C22.5378 17.3911 22.1539 18.216 22.1539 19.1867C22.1539 20.1556 22.5399 20.9778 23.3119 21.6533C24.0839 22.3289 25.0216 22.6667 26.1251 22.6667ZM39.4089 56H35.9106C34.5646 56 33.4127 55.5778 32.4547 54.7333C31.4948 53.8907 31.0148 52.8773 31.0148 51.6933V41.232C31.0148 37.2427 32.6033 33.8516 35.7802 31.0587C38.9552 28.2676 42.8122 26.872 47.3513 26.872C51.8884 26.872 55.7413 28.2676 58.9102 31.0587C62.0771 33.8498 63.6605 37.2409 63.6605 41.232V51.6933C63.6605 52.8773 63.1805 53.8907 62.2206 54.7333C61.2626 55.5778 60.1107 56 58.7647 56H55.2634V44.3067H60.9746V41.232C60.9746 37.8987 59.6489 35.0649 56.9974 32.7307C54.3459 30.3964 51.1244 29.2302 47.3331 29.232C43.5438 29.232 40.3234 30.3982 37.6719 32.7307C35.0203 35.0631 33.6936 37.8969 33.6916 41.232V44.3067H39.4089V56Z" fill="white"/>
</svg>
