<svg width="21" height="21" viewBox="0 0 21 21" fill="none" xmlns="http://www.w3.org/2000/svg">
<path d="M19.0448 10.5028C18.7929 10.5028 18.5513 10.6028 18.3732 10.7809C18.1951 10.959 18.095 11.2006 18.095 11.4525V17.1508C18.095 17.4027 17.995 17.6443 17.8169 17.8224C17.6388 18.0005 17.3972 18.1006 17.1453 18.1006H3.84917C3.59729 18.1006 3.35573 18.0005 3.17762 17.8224C2.99951 17.6443 2.89945 17.4027 2.89945 17.1508V3.85468C2.89945 3.6028 2.99951 3.36123 3.17762 3.18312C3.35573 3.00502 3.59729 2.90496 3.84917 2.90496H9.54752C9.79941 2.90496 10.041 2.8049 10.2191 2.62679C10.3972 2.44868 10.4972 2.20711 10.4972 1.95523C10.4972 1.70335 10.3972 1.46178 10.2191 1.28367C10.041 1.10557 9.79941 1.00551 9.54752 1.00551H3.84917C3.09353 1.00551 2.36883 1.30569 1.8345 1.84001C1.30018 2.37433 1 3.09903 1 3.85468V17.1508C1 17.9065 1.30018 18.6312 1.8345 19.1655C2.36883 19.6998 3.09353 20 3.84917 20H17.1453C17.901 20 18.6257 19.6998 19.16 19.1655C19.6943 18.6312 19.9945 17.9065 19.9945 17.1508V11.4525C19.9945 11.2006 19.8944 10.959 19.7163 10.7809C19.5382 10.6028 19.2967 10.5028 19.0448 10.5028ZM4.7989 11.2245V15.2514C4.7989 15.5033 4.89896 15.7448 5.07707 15.9229C5.25517 16.101 5.49674 16.2011 5.74862 16.2011H9.77546C9.90045 16.2018 10.0243 16.1779 10.1401 16.1306C10.2558 16.0833 10.361 16.0137 10.4498 15.9257L17.0219 9.34409L19.7191 6.70386C19.8081 6.61557 19.8787 6.51053 19.927 6.39479C19.9752 6.27906 20 6.15493 20 6.02955C20 5.90418 19.9752 5.78004 19.927 5.66431C19.8787 5.54858 19.8081 5.44353 19.7191 5.35525L15.6922 1.28093C15.604 1.19191 15.4989 1.12126 15.3832 1.07304C15.2674 1.02482 15.1433 1 15.0179 1C14.8926 1 14.7684 1.02482 14.6527 1.07304C14.537 1.12126 14.4319 1.19191 14.3436 1.28093L11.6654 3.96865L5.07432 10.5502C4.9863 10.639 4.91666 10.7442 4.8694 10.8599C4.82213 10.9757 4.79818 11.0996 4.7989 11.2245ZM15.0179 3.29434L17.7057 5.98206L16.357 7.33067L13.6693 4.64295L15.0179 3.29434ZM6.69835 11.6139L12.3302 5.98206L15.0179 8.66978L9.38607 14.3017H6.69835V11.6139Z" fill="#0965BA"/>
</svg>
