<svg width="21" height="22" viewBox="0 0 21 22" fill="none" xmlns="http://www.w3.org/2000/svg">
<path d="M12.5 1H4.5C3.96957 1 3.46086 1.21071 3.08579 1.58579C2.71071 1.96086 2.5 2.46957 2.5 3V19C2.5 19.5304 2.71071 20.0391 3.08579 20.4142C3.46086 20.7893 3.96957 21 4.5 21H16.5C17.0304 21 17.5391 20.7893 17.9142 20.4142C18.2893 20.0391 18.5 19.5304 18.5 19V7L12.5 1ZM14.3 19H12.5L10.5 15.6L8.5 19H6.7L9.6 14.5L6.7 10H8.5L10.5 13.4L12.5 10H14.3L11.4 14.5L14.3 19ZM11.5 8V2.5L17 8H11.5Z" fill="#006C07"/>
</svg>
