<svg width="20" height="20" viewBox="0 0 20 20" fill="none" xmlns="http://www.w3.org/2000/svg">
<path d="M11.872 5.82999C11.809 5.73904 11.737 5.65718 11.665 5.58442H11.656C11.3756 5.29986 11.0336 5.08502 10.657 4.95687L9.415 4.54759C9.325 4.51121 9.235 4.44755 9.181 4.36569C9.1207 4.28449 9.08902 4.18524 9.091 4.08375C9.08902 3.98225 9.1207 3.883 9.181 3.8018C9.235 3.71994 9.316 3.65628 9.415 3.6199L10.657 3.21062C11.035 3.08329 11.368 2.86501 11.647 2.58307C11.908 2.31022 12.115 1.9737 12.25 1.6099V1.58262L12.655 0.327509C12.691 0.236559 12.754 0.145609 12.835 0.0910387C12.9153 0.0301011 13.0136 -0.00191534 13.114 8.86669e-05C13.213 8.86669e-05 13.312 0.0364687 13.393 0.0910387C13.474 0.145609 13.537 0.227464 13.573 0.327509L13.978 1.58262C14.104 1.96461 14.32 2.31022 14.599 2.59216C14.878 2.8832 15.22 3.09239 15.598 3.21972L16.84 3.62899H16.867C16.957 3.66537 17.038 3.72904 17.101 3.81089C17.164 3.89275 17.191 3.99279 17.191 4.09284C17.193 4.19434 17.1613 4.29359 17.101 4.37479C17.047 4.45664 16.966 4.52031 16.867 4.55668L15.625 4.96596C15.247 5.09329 14.905 5.31157 14.626 5.59352C14.338 5.87546 14.131 6.22107 14.005 6.60306L13.591 7.85817V7.88546C13.555 7.96731 13.492 8.04007 13.42 8.09464C13.3397 8.15558 13.2414 8.1876 13.141 8.18559C13.0406 8.1876 12.9423 8.15558 12.862 8.09464C12.7785 8.03732 12.7154 7.95443 12.682 7.85817L12.277 6.60306C12.187 6.32112 12.052 6.05736 11.872 5.82999ZM18.802 9.28609L18.109 9.06781C17.893 8.99505 17.704 8.87681 17.551 8.7222C17.398 8.55849 17.281 8.36749 17.209 8.15831L16.984 7.46709C16.9648 7.41289 16.9304 7.36549 16.885 7.33066C16.8416 7.29553 16.7876 7.27639 16.732 7.27639C16.6764 7.27639 16.6224 7.29553 16.579 7.33066C16.534 7.36704 16.498 7.41252 16.48 7.46709L16.255 8.15831C16.192 8.36749 16.075 8.55849 15.922 8.7131C15.769 8.86772 15.58 8.98595 15.373 9.05871L14.68 9.28609C14.626 9.30428 14.581 9.34066 14.545 9.38613C14.5102 9.43001 14.4913 9.48454 14.4913 9.54075C14.4913 9.59695 14.5102 9.65149 14.545 9.69536C14.581 9.74084 14.626 9.77722 14.68 9.79541L15.373 10.0228C15.58 10.0864 15.778 10.2138 15.931 10.3684C16.084 10.523 16.201 10.7231 16.273 10.9323L16.498 11.6235C16.516 11.6781 16.552 11.7235 16.597 11.7599C16.6404 11.7951 16.6944 11.8142 16.75 11.8142C16.8056 11.8142 16.8596 11.7951 16.903 11.7599C16.948 11.7235 16.984 11.6781 17.002 11.6235L17.227 10.9323C17.299 10.714 17.416 10.523 17.569 10.3684C17.731 10.2138 17.92 10.0955 18.127 10.0228L18.82 9.79541C18.874 9.77722 18.919 9.74084 18.955 9.69536C18.991 9.64989 19 9.59532 19 9.54075C19 9.48618 18.991 9.43161 18.955 9.38613C18.919 9.34066 18.8596 9.31337 18.802 9.28609ZM14.986 11.3597L15.22 12.0873C15.265 12.2147 15.328 12.3147 15.4 12.4239V17.9536C15.4 19.0814 14.491 20 13.375 20H3.025C1.909 20 1 19.0814 1 17.9536V3.85637C1 2.72859 1.909 1.80999 3.025 1.80999H10.459C10.396 1.84637 10.324 1.88275 10.261 1.91004L8.983 2.32841C8.623 2.46483 8.308 2.69221 8.092 3.01053C7.8684 3.32264 7.74864 3.69843 7.75 4.08375C7.75 4.47483 7.867 4.84772 8.083 5.15696C8.1532 5.25882 8.2432 5.34067 8.3305 5.4198L8.371 5.45709H4.375C4.006 5.45709 3.7 5.76632 3.7 6.13922C3.7 6.51211 4.006 6.82134 4.375 6.82134H10.891L10.9225 6.87409C10.9526 6.92063 10.9782 6.96997 10.999 7.02143L11.413 8.30383C11.539 8.66763 11.773 8.97686 12.088 9.20423C12.403 9.42251 12.772 9.54075 13.15 9.54075C13.15 9.87726 13.249 10.2047 13.447 10.4866C13.645 10.7686 13.915 10.9687 14.266 11.096L14.986 11.3597ZM4.375 15.9072H12.025C12.394 15.9072 12.7 15.598 12.7 15.2251C12.7 14.8522 12.394 14.543 12.025 14.543H4.375C4.006 14.543 3.7 14.8522 3.7 15.2251C3.7 15.598 4.006 15.9072 4.375 15.9072ZM4.375 11.3597H12.025C12.394 11.3597 12.7 11.0505 12.7 10.6776C12.7 10.3047 12.394 9.9955 12.025 9.9955H4.375C4.006 9.9955 3.7 10.3047 3.7 10.6776C3.7 11.0505 4.006 11.3597 4.375 11.3597Z" fill="#F8ADAD"/>
</svg>
