<svg width="21" height="20" viewBox="0 0 21 20" fill="none" xmlns="http://www.w3.org/2000/svg">
<path d="M1.5 4.6H3.5M3.5 4.6H19.5M3.5 4.6L3.49998 17.2C3.49998 17.6774 3.71069 18.1352 4.08577 18.4728C4.46084 18.8104 4.96955 19 5.49998 19H15.5C16.0304 19 16.5391 18.8104 16.9142 18.4728C17.2893 18.1352 17.5 17.6774 17.5 17.2V4.6M6.49998 4.6V2.8C6.49998 2.32261 6.71069 1.86477 7.08577 1.52721C7.46084 1.18964 7.96955 1 8.49998 1H12.5C13.0304 1 13.5391 1.18964 13.9142 1.52721C14.2893 1.86477 14.5 2.32261 14.5 2.8V4.6M8.49985 9.1V14.5M12.5002 9.1V14.5" stroke="#006C07" stroke-width="1.5" stroke-linecap="round" stroke-linejoin="round"/>
</svg>
