<svg width="70" height="66" viewBox="0 0 70 66" fill="none" xmlns="http://www.w3.org/2000/svg">
<path d="M3.20654 54.5279V37.9257L18.83 31.7021L34.4534 37.9303V54.5279L18.83 60.7468L3.20654 54.5279Z" stroke="white" stroke-width="3" stroke-linecap="round" stroke-linejoin="round"/>
<path d="M3.20654 37.8935L18.83 44.1171L34.4534 37.8935M18.83 15.2146L34.4485 21.4427L50.0719 15.2192" stroke="white" stroke-width="3" stroke-linecap="round" stroke-linejoin="round"/>
<path d="M34.4485 37.8936L50.0719 44.1171L65.6954 37.8936" stroke="white" stroke-width="3" stroke-linecap="round" stroke-linejoin="round"/>
<path d="M18.83 44.1262V60.7513M50.0818 44.1262V60.7513M34.4485 21.4426V38.0632M18.8398 31.6929V15.0907L34.4583 8.86719L50.0818 15.0907V31.6929L34.4583 37.9164L18.8398 31.6929ZM34.4485 54.5278V37.9256L50.0719 31.7021L65.6953 37.9302V54.5278L50.0719 60.7467L34.4485 54.5278Z" stroke="white" stroke-width="3" stroke-linecap="round" stroke-linejoin="round"/>
</svg>
