<svg width="22" height="21" viewBox="0 0 22 21" fill="none" xmlns="http://www.w3.org/2000/svg">
<path d="M10.8296 19.25C15.6621 19.25 19.5796 15.3325 19.5796 10.5C19.5796 5.66751 15.6621 1.75 10.8296 1.75C5.9971 1.75 2.07959 5.66751 2.07959 10.5C2.07959 15.3325 5.9971 19.25 10.8296 19.25Z" stroke="#B5B5C3" stroke-width="2" stroke-linecap="round" stroke-linejoin="round"/>
<path d="M8.28345 7.87501C8.48916 7.29022 8.89521 6.7971 9.42966 6.483C9.96411 6.1689 10.5925 6.05408 11.2035 6.15888C11.8145 6.26369 12.3687 6.58134 12.7679 7.0556C13.1671 7.52985 13.3856 8.13009 13.3847 8.75001C13.3847 10.5 10.7597 11.375 10.7597 11.375" stroke="#B5B5C3" stroke-width="2" stroke-linecap="round" stroke-linejoin="round"/>
<path d="M10.8296 14.875H10.8383" stroke="#B5B5C3" stroke-width="2" stroke-linecap="round" stroke-linejoin="round"/>
</svg>
