<svg width="20" height="20" viewBox="0 0 20 20" fill="none" xmlns="http://www.w3.org/2000/svg">
<path d="M19.6923 7.49731L17.154 5.3484L16.0002 4.37163L11.5005 0.560047C11.0668 0.196368 10.5409 0 10.0006 0C9.46034 0 8.93442 0.196368 8.50072 0.560047L6.15471 2.54832V2.45715C6.1541 2.22709 6.07287 2.00666 5.92875 1.84398C5.78463 1.6813 5.58934 1.5896 5.38553 1.58891H2.61648C2.41248 1.58891 2.21683 1.68039 2.07258 1.84321C1.92833 2.00604 1.84729 2.22688 1.84729 2.45715V6.27309L0.297392 7.63189C0.217495 7.70193 0.15062 7.78907 0.100601 7.88832C0.0505827 7.98758 0.0184006 8.097 0.00589713 8.21031C-0.00660637 8.32362 0.000818575 8.4386 0.0277393 8.54867C0.05466 8.65874 0.100548 8.76174 0.162783 8.85177C0.234313 8.95668 0.326409 9.04146 0.431837 9.09946C0.537265 9.15745 0.653154 9.18708 0.770432 9.18604C0.940466 9.186 1.10561 9.12183 1.23963 9.00371L1.84729 8.47408V17.1782C1.8479 17.9264 2.11147 18.6437 2.58015 19.1728C3.04883 19.7018 3.68432 19.9993 4.34714 20H7.66616C7.80439 19.9999 7.94001 19.9575 8.05854 19.8772C8.17708 19.7969 8.27408 19.6818 8.33919 19.5442C8.40232 19.4184 8.43545 19.2763 8.43534 19.1318C8.43598 19.1013 8.43469 19.0708 8.43149 19.0406V16.5574C8.4321 16.0883 8.59774 15.6386 8.89199 15.3073C9.18623 14.976 9.585 14.7901 10.0006 14.7905C10.4156 14.791 10.8135 14.9773 11.107 15.3086C11.4005 15.6398 11.5655 16.089 11.5659 16.5574V19.1318C11.5658 19.2763 11.5989 19.4184 11.6621 19.5442C11.7284 19.6816 11.8262 19.7965 11.9452 19.8767C12.0643 19.9568 12.2003 19.9994 12.3389 20H15.6541C16.3167 19.9985 16.9518 19.7007 17.4203 19.1719C17.8888 18.643 18.1526 17.9261 18.154 17.1782V8.36555L18.7693 8.88649C18.9012 8.99882 19.0618 9.05976 19.227 9.06014C19.3469 9.05977 19.4651 9.02827 19.5725 8.96805C19.6798 8.90782 19.7735 8.82049 19.8462 8.71284C19.9686 8.52863 20.0211 8.29707 19.9923 8.06911C19.9634 7.84115 19.8555 7.63547 19.6923 7.49731Z" fill="#F8ADAD"/>
</svg>
