<svg width="76" height="75" viewBox="0 0 76 75" fill="none" xmlns="http://www.w3.org/2000/svg">
<rect x="0.703125" y="0.5" width="74.2033" height="74" rx="4.5" stroke="#F5831E" stroke-dasharray="5 5"/>
<path d="M38.1444 30.5647L38.0515 30.5369C37.7806 30.4558 37.6271 30.1703 37.7075 29.8993C37.7075 29.8993 37.7075 29.8992 37.7075 29.8992L37.8513 29.9419L38.1444 30.5647ZM38.1444 30.5647L38.1516 30.5564M38.1444 30.5647L38.1516 30.5564M38.1516 30.5564C38.3903 30.5784 38.6176 30.4289 38.6877 30.1913L38.1516 30.5564Z" fill="#F5831E" stroke="#F9FFF9" stroke-width="0.3"/>
<path d="M48.1063 44.199H45.9381C45.7386 44.199 45.5767 44.0365 45.5767 43.8361C45.5767 43.6357 45.7386 43.4732 45.9381 43.4732H48.1063C51.0951 43.4732 53.527 41.031 53.527 38.0295C53.527 35.0279 51.0951 32.5857 48.1063 32.5857H48.0542C47.9494 32.5857 47.8497 32.5401 47.7811 32.4605C47.7124 32.3809 47.6814 32.2754 47.6964 32.1712C47.7287 31.9452 47.745 31.7181 47.745 31.497C47.745 28.8957 45.6373 26.7791 43.047 26.7791C42.0393 26.7791 41.0783 27.0953 40.2677 27.6939C40.0896 27.8253 39.8367 27.767 39.7337 27.5702C37.4382 23.1805 31.4425 22.591 28.3341 26.4097C27.0247 28.0184 26.5102 30.1111 26.9224 32.1508C26.9679 32.376 26.7962 32.586 26.5683 32.586H26.4235C23.4347 32.586 21.0028 35.0282 21.0028 38.0297C21.0028 41.0313 23.4347 43.4735 26.4235 43.4735H28.5917C28.7912 43.4735 28.9531 43.636 28.9531 43.8364C28.9531 44.0368 28.7912 44.1993 28.5917 44.1993H26.4235C23.0361 44.1993 20.28 41.4316 20.28 38.0297C20.28 34.7233 22.8835 32.0159 26.1398 31.8666C25.8339 29.7505 26.4188 27.6161 27.7745 25.9503C31.1025 21.8616 37.4804 22.3199 40.1765 26.8791C41.0366 26.3376 42.0208 26.0535 43.0469 26.0535C46.1852 26.0535 48.672 28.736 48.4544 31.87C51.6807 32.0517 54.2496 34.7448 54.2496 38.0295C54.2496 41.4316 51.4936 44.1991 48.1062 44.1991L48.1063 44.199Z" fill="#F5831E"/>
<path d="M28.0319 43.6316C28.0319 48.7167 32.1514 52.8546 37.2164 52.8546C42.2815 52.8546 46.401 48.7167 46.401 43.6316C46.401 38.5465 42.2815 34.4086 37.2164 34.4086C32.1513 34.4086 28.0319 38.5465 28.0319 43.6316ZM29.0548 43.6316C29.0548 39.1114 32.7168 35.4346 37.2164 35.4346C41.7159 35.4346 45.378 39.1113 45.378 43.6316C45.378 48.1518 41.7159 51.8286 37.2164 51.8286C32.7169 51.8286 29.0548 48.1519 29.0548 43.6316Z" fill="#F5831E" stroke="#F9FFF9" stroke-width="0.3"/>
<path d="M36.9672 47.2832C36.9672 47.5122 37.1523 47.6989 37.3819 47.6989C37.6113 47.6989 37.7965 47.5125 37.7965 47.2832V40.3751C37.7965 40.1461 37.6114 39.9594 37.3819 39.9594C37.1523 39.9594 36.9672 40.1461 36.9672 40.3751V47.2832Z" fill="#F5831E" stroke="#F5831E" stroke-width="0.3"/>
<path d="M37.3816 40.9639L39.2048 42.7949C39.2856 42.876 39.3922 42.9168 39.4982 42.9168L37.3816 40.9639ZM37.3816 40.9639L35.5586 42.7948L37.3816 40.9639ZM37.675 40.0819C37.5131 39.9192 37.25 39.9191 37.0882 40.082L39.4982 42.9168C39.6039 42.9168 39.7106 42.8764 39.7916 42.7948C39.9532 42.6324 39.9532 42.3697 39.7916 42.2074L37.675 40.0819Z" fill="#F5831E" stroke="#F5831E" stroke-width="0.3"/>
</svg>
