<svg width="62" height="61" viewBox="0 0 62 61" fill="none" xmlns="http://www.w3.org/2000/svg">
<path d="M37.8268 29.2602L16.7266 25.543V53.0101C16.7268 53.3085 16.7858 53.6039 16.9003 53.8795C17.0147 54.1551 17.1823 54.4055 17.3934 54.6163C17.6046 54.8271 17.8552 54.9943 18.131 55.1082C18.4068 55.2222 18.7023 55.2807 19.0007 55.2805H55.4101C55.7088 55.2812 56.0047 55.2231 56.281 55.1093C56.5572 54.9956 56.8083 54.8285 57.0198 54.6176C57.2314 54.4068 57.3993 54.1562 57.514 53.8804C57.6287 53.6046 57.6878 53.3088 57.6881 53.0101V42.8898L37.8268 29.2602Z" fill="#185C37"/>
<path d="M37.8268 5.71875H19.0007C18.7023 5.7185 18.4068 5.77703 18.131 5.89099C17.8552 6.00495 17.6046 6.17211 17.3934 6.38293C17.1823 6.59375 17.0147 6.8441 16.9003 7.11969C16.7858 7.39527 16.7268 7.6907 16.7266 7.98909V18.1094L37.8268 30.5L48.9994 34.2172L57.6881 30.5V18.1094L37.8268 5.71875Z" fill="#21A366"/>
<path d="M16.7266 18.1094H37.8268V30.5H16.7266V18.1094Z" fill="#107C41"/>
<path opacity="0.1" d="M31.8279 15.6309H16.7266V46.6074H31.8279C32.4296 46.6044 33.0059 46.3645 33.432 45.9395C33.858 45.5145 34.0994 44.9388 34.1039 44.3371V17.9012C34.0994 17.2995 33.858 16.7238 33.432 16.2988C33.0059 15.8738 32.4296 15.6339 31.8279 15.6309Z" fill="black"/>
<path opacity="0.2" d="M30.5869 16.8711H16.7266V47.8477H30.5869C31.1886 47.8447 31.765 47.6047 32.191 47.1797C32.617 46.7548 32.8585 46.179 32.863 45.5773V19.1414C32.8585 18.5397 32.617 17.964 32.191 17.539C31.765 17.1141 31.1886 16.8741 30.5869 16.8711Z" fill="black"/>
<path opacity="0.2" d="M30.5869 16.8711H16.7266V45.3695H30.5869C31.1886 45.3665 31.765 45.1266 32.191 44.7016C32.617 44.2766 32.8585 43.7009 32.863 43.0992V19.1414C32.8585 18.5397 32.617 17.964 32.191 17.539C31.765 17.1141 31.1886 16.8741 30.5869 16.8711Z" fill="black"/>
<path opacity="0.2" d="M29.3459 16.8711H16.7266V45.3695H29.3459C29.9477 45.3665 30.524 45.1266 30.95 44.7016C31.3761 44.2766 31.6175 43.7009 31.622 43.0992V19.1414C31.6175 18.5397 31.3761 17.964 30.95 17.539C30.524 17.1141 29.9477 16.8741 29.3459 16.8711Z" fill="black"/>
<path d="M6.58856 16.8711H29.3454C29.9482 16.8706 30.5265 17.1094 30.9533 17.5352C31.3801 17.9609 31.6204 18.5386 31.6214 19.1414V41.8601C31.6204 42.4629 31.3801 43.0407 30.9533 43.4664C30.5265 43.8921 29.9482 44.131 29.3454 44.1305H6.58856C6.29001 44.131 5.99428 44.0726 5.71828 43.9588C5.44228 43.8449 5.19143 43.6778 4.98005 43.467C4.76867 43.2561 4.60092 43.0057 4.48638 42.73C4.37183 42.4543 4.31275 42.1587 4.3125 41.8601V19.1414C4.31275 18.8429 4.37183 18.5473 4.48638 18.2716C4.60092 17.9959 4.76867 17.7454 4.98005 17.5346C5.19143 17.3238 5.44228 17.1566 5.71828 17.0428C5.99428 16.9289 6.29001 16.8706 6.58856 16.8711Z" fill="url(#paint0_linear_4372_17632)"/>
<path d="M11.3652 37.883L16.1518 30.4791L11.7675 23.1172H15.2883L17.6806 27.8313C17.9018 28.2774 18.0619 28.6091 18.1343 28.8302H18.1667C18.323 28.4718 18.4889 28.1268 18.6624 27.7894L21.2205 23.1248H24.4612L19.9643 30.4448L24.5755 37.8887H21.1271L18.3631 32.7209C18.2347 32.4987 18.1257 32.2659 18.0371 32.0251H17.9914C17.9108 32.2597 17.8033 32.4842 17.6711 32.6942L14.8251 37.883H11.3652Z" fill="white"/>
<path d="M55.4113 5.71875H37.8262V18.1094H57.6874V7.9891C57.6871 7.69054 57.6281 7.39496 57.5135 7.11925C57.399 6.84354 57.2312 6.5931 57.0198 6.38226C56.8085 6.17141 56.5576 6.00429 56.2816 5.89044C56.0056 5.77659 55.7099 5.71825 55.4113 5.71875Z" fill="#33C481"/>
<path d="M37.8262 30.5H57.6874V42.8906H37.8262V30.5Z" fill="#107C41"/>
<defs>
<linearGradient id="paint0_linear_4372_17632" x1="9.06669" y1="15.0868" x2="26.8672" y2="45.9147" gradientUnits="userSpaceOnUse">
<stop stop-color="#18884F"/>
<stop offset="0.5" stop-color="#117E43"/>
<stop offset="1" stop-color="#0B6631"/>
</linearGradient>
</defs>
</svg>
