<svg width="19" height="18" viewBox="0 0 19 18" fill="none" xmlns="http://www.w3.org/2000/svg">
<path d="M13.82 13.3199C12.5768 14.2676 11.063 14.7926 9.5 14.8181C4.40909 14.8181 1.5 8.99995 1.5 8.99995C2.40465 7.31405 3.65937 5.84112 5.18 4.67995M7.97273 3.35631C8.47333 3.23913 8.98586 3.18056 9.5 3.18177C14.5909 3.18177 17.5 8.99995 17.5 8.99995C17.0585 9.82584 16.532 10.6034 15.9291 11.3199M11.0418 10.5418C10.8421 10.7561 10.6012 10.9281 10.3336 11.0473C10.0659 11.1666 9.77702 11.2307 9.48407 11.2358C9.19111 11.241 8.90012 11.1871 8.62844 11.0774C8.35677 10.9677 8.10998 10.8043 7.9028 10.5971C7.69562 10.39 7.53229 10.1432 7.42255 9.8715C7.31282 9.59983 7.25893 9.30884 7.2641 9.01588C7.26927 8.72293 7.33339 8.43402 7.45264 8.16638C7.57189 7.89875 7.74382 7.65787 7.95818 7.45813" stroke="#73777A" stroke-width="1.5" stroke-linecap="round" stroke-linejoin="round"/>
<path d="M1.5 1L17.5 17" stroke="#73777A" stroke-width="1.5" stroke-linecap="round" stroke-linejoin="round"/>
</svg>
