<svg width="16" height="21" viewBox="0 0 16 21" fill="none" xmlns="http://www.w3.org/2000/svg">
<path d="M15.4629 4.30664L11.4475 0.287109C11.2629 0.102539 11.0127 0 10.7502 0H10.5V5.25H15.75V4.9998C15.75 4.74141 15.6475 4.49121 15.4629 4.30664ZM9.1875 5.57812V0H0.984375C0.438867 0 0 0.438867 0 0.984375V20.0156C0 20.5611 0.438867 21 0.984375 21H14.7656C15.3111 21 15.75 20.5611 15.75 20.0156V6.5625H10.1719C9.63047 6.5625 9.1875 6.11953 9.1875 5.57812ZM2.625 2.95312C2.625 2.77184 2.77184 2.625 2.95312 2.625H6.23438C6.41566 2.625 6.5625 2.77184 6.5625 2.95312V3.60938C6.5625 3.79066 6.41566 3.9375 6.23438 3.9375H2.95312C2.77184 3.9375 2.625 3.79066 2.625 3.60938V2.95312ZM2.625 6.23438V5.57812C2.625 5.39684 2.77184 5.25 2.95312 5.25H6.23438C6.41566 5.25 6.5625 5.39684 6.5625 5.57812V6.23438C6.5625 6.41566 6.41566 6.5625 6.23438 6.5625H2.95312C2.77184 6.5625 2.625 6.41566 2.625 6.23438ZM8.53125 17.0576V18.0469C8.53125 18.2282 8.38441 18.375 8.20312 18.375H7.54688C7.36559 18.375 7.21875 18.2282 7.21875 18.0469V17.0506C6.75568 17.0268 6.30533 16.8652 5.93209 16.5851C5.77213 16.4649 5.76393 16.2254 5.90871 16.0871L6.39064 15.6274C6.50426 15.5191 6.67324 15.5142 6.80613 15.5974C6.96486 15.6967 7.14492 15.75 7.33195 15.75H8.4849C8.7515 15.75 8.96889 15.5072 8.96889 15.209C8.96889 14.965 8.82082 14.75 8.60918 14.6869L6.76348 14.1332C6.001 13.9043 5.4682 13.1726 5.4682 12.3535C5.4682 11.3478 6.24955 10.5308 7.21834 10.5049V9.51562C7.21834 9.33434 7.36518 9.1875 7.54646 9.1875H8.20271C8.384 9.1875 8.53084 9.33434 8.53084 9.51562V10.5119C8.99391 10.5357 9.44426 10.6969 9.8175 10.9774C9.97746 11.0976 9.98566 11.3371 9.84088 11.4754L9.35894 11.9351C9.24533 12.0434 9.07635 12.0483 8.94346 11.9651C8.78473 11.8654 8.60467 11.8125 8.41764 11.8125H7.26469C6.99809 11.8125 6.7807 12.0553 6.7807 12.3535C6.7807 12.5975 6.92877 12.8125 7.14041 12.8756L8.98611 13.4293C9.74859 13.6582 10.2814 14.3899 10.2814 15.209C10.2814 16.2151 9.50004 17.0317 8.53125 17.0576Z" fill="#357B4C"/>
</svg>
