<svg width="67" height="66" viewBox="0 0 67 66" fill="none" xmlns="http://www.w3.org/2000/svg">
<mask id="path-1-inside-1_664_5399" fill="white">
<path d="M66.4839 35.2795L56.6212 7.26742C56.5122 6.96028 56.3108 6.70697 56.053 6.55248C55.7951 6.39799 55.4974 6.35232 55.2127 6.42356L34.5195 11.6408V2.18674C34.5195 1.81527 34.3896 1.45902 34.1584 1.19636C33.9272 0.933696 33.6136 0.786133 33.2867 0.786133C32.9597 0.786133 32.6461 0.933696 32.4149 1.19636C32.1837 1.45902 32.0538 1.81527 32.0538 2.18674V12.2676L10.8274 17.6284C10.6322 17.6778 10.4505 17.7805 10.298 17.9275C10.1455 18.0745 10.0268 18.2615 9.9521 18.4722L0.0893811 46.4843C0.0305487 46.6501 0.00020858 46.8272 0 47.006C0 54.1491 6.80527 56.8102 11.0956 56.8102C15.3858 56.8102 22.1911 54.1491 22.1911 47.006C22.1909 46.8272 22.1606 46.6501 22.1017 46.4843L12.7784 20.0024L32.0538 15.1423V62.4126H25.8896C25.5627 62.4126 25.2491 62.5602 25.0179 62.8229C24.7867 63.0855 24.6568 63.4418 24.6568 63.8132C24.6568 64.1847 24.7867 64.541 25.0179 64.8036C25.2491 65.0663 25.5627 65.2139 25.8896 65.2139H40.6837C41.0107 65.2139 41.3242 65.0663 41.5554 64.8036C41.7866 64.541 41.9165 64.1847 41.9165 63.8132C41.9165 63.4418 41.7866 63.0855 41.5554 62.8229C41.3242 62.5602 41.0107 62.4126 40.6837 62.4126H34.5195V14.5155L53.4652 9.73248L44.4716 35.2935C44.4143 35.4549 44.384 35.6271 44.3822 35.8012C44.3822 42.9443 51.1875 45.6054 55.4778 45.6054C59.768 45.6054 66.5733 42.9443 66.5733 35.8012C66.5731 35.6224 66.5428 35.4453 66.4839 35.2795ZM11.0956 54.009C8.89185 54.009 2.65985 52.7625 2.46568 47.2616L11.0956 22.7511L19.7254 47.2616C19.5313 52.7625 13.2993 54.009 11.0956 54.009ZM55.4778 42.8042C53.2741 42.8042 47.0421 41.5577 46.8479 36.0568L55.4778 11.5463L64.1076 36.0568C63.9135 41.5577 57.6815 42.8042 55.4778 42.8042Z"/>
</mask>
<path d="M66.4839 35.2795L56.6212 7.26742C56.5122 6.96028 56.3108 6.70697 56.053 6.55248C55.7951 6.39799 55.4974 6.35232 55.2127 6.42356L34.5195 11.6408V2.18674C34.5195 1.81527 34.3896 1.45902 34.1584 1.19636C33.9272 0.933696 33.6136 0.786133 33.2867 0.786133C32.9597 0.786133 32.6461 0.933696 32.4149 1.19636C32.1837 1.45902 32.0538 1.81527 32.0538 2.18674V12.2676L10.8274 17.6284C10.6322 17.6778 10.4505 17.7805 10.298 17.9275C10.1455 18.0745 10.0268 18.2615 9.9521 18.4722L0.0893811 46.4843C0.0305487 46.6501 0.00020858 46.8272 0 47.006C0 54.1491 6.80527 56.8102 11.0956 56.8102C15.3858 56.8102 22.1911 54.1491 22.1911 47.006C22.1909 46.8272 22.1606 46.6501 22.1017 46.4843L12.7784 20.0024L32.0538 15.1423V62.4126H25.8896C25.5627 62.4126 25.2491 62.5602 25.0179 62.8229C24.7867 63.0855 24.6568 63.4418 24.6568 63.8132C24.6568 64.1847 24.7867 64.541 25.0179 64.8036C25.2491 65.0663 25.5627 65.2139 25.8896 65.2139H40.6837C41.0107 65.2139 41.3242 65.0663 41.5554 64.8036C41.7866 64.541 41.9165 64.1847 41.9165 63.8132C41.9165 63.4418 41.7866 63.0855 41.5554 62.8229C41.3242 62.5602 41.0107 62.4126 40.6837 62.4126H34.5195V14.5155L53.4652 9.73248L44.4716 35.2935C44.4143 35.4549 44.384 35.6271 44.3822 35.8012C44.3822 42.9443 51.1875 45.6054 55.4778 45.6054C59.768 45.6054 66.5733 42.9443 66.5733 35.8012C66.5731 35.6224 66.5428 35.4453 66.4839 35.2795ZM11.0956 54.009C8.89185 54.009 2.65985 52.7625 2.46568 47.2616L11.0956 22.7511L19.7254 47.2616C19.5313 52.7625 13.2993 54.009 11.0956 54.009ZM55.4778 42.8042C53.2741 42.8042 47.0421 41.5577 46.8479 36.0568L55.4778 11.5463L64.1076 36.0568C63.9135 41.5577 57.6815 42.8042 55.4778 42.8042Z" fill="white"/>
<path d="M66.4839 35.2795L47.6191 41.9216L47.627 41.944L47.635 41.9665L66.4839 35.2795ZM56.6212 7.26742L75.4861 0.625328L75.4773 0.600393L75.4685 0.575482L56.6212 7.26742ZM55.2127 6.42356L50.3577 -12.9782L50.3404 -12.9739L50.3232 -12.9696L55.2127 6.42356ZM34.5195 11.6408H14.5195V37.3091L39.409 31.0339L34.5195 11.6408ZM32.0538 12.2676L36.9511 31.6587L52.0538 27.8445V12.2676H32.0538ZM10.8274 17.6284L5.93011 -1.76277L5.91651 -1.75933L10.8274 17.6284ZM9.9521 18.4722L-8.89877 11.7906L-8.90579 11.8104L-8.91276 11.8301L9.9521 18.4722ZM0.0893811 46.4843L18.9383 53.1713L18.9463 53.1489L18.9542 53.1264L0.0893811 46.4843ZM0 47.006L-20 46.9827L-20 46.9944V47.006H0ZM22.1911 47.006H42.1911V46.9944L42.1911 46.9827L22.1911 47.006ZM22.1017 46.4843L3.23674 53.126L3.24472 53.1487L3.25276 53.1713L22.1017 46.4843ZM12.7784 20.0024L7.88863 0.609349L-13.3658 5.96842L-6.08661 26.6441L12.7784 20.0024ZM32.0538 15.1423H52.0538V-10.5264L27.1641 -4.25074L32.0538 15.1423ZM32.0538 62.4126V82.4126H52.0538V62.4126H32.0538ZM34.5195 62.4126H14.5195V82.4126H34.5195V62.4126ZM34.5195 14.5155L29.6239 -4.87603L14.5195 -1.06275V14.5155H34.5195ZM53.4652 9.73248L72.3314 16.3705L84.6992 -18.7805L48.5695 -9.65908L53.4652 9.73248ZM44.4716 35.2935L63.3195 41.9835L63.3287 41.9575L63.3379 41.9315L44.4716 35.2935ZM44.3822 35.8012L24.3832 35.599L24.3822 35.7001V35.8012H44.3822ZM66.5733 35.8012H86.5733V35.7895L86.5733 35.7779L66.5733 35.8012ZM2.46568 47.2616L-16.3992 40.6195L-17.6553 44.1872L-17.5219 47.9672L2.46568 47.2616ZM11.0956 22.7511L29.9604 16.109L11.0956 -37.4709L-7.7693 16.109L11.0956 22.7511ZM19.7254 47.2616L39.713 47.9672L39.8464 44.1872L38.5903 40.6195L19.7254 47.2616ZM46.8479 36.0568L27.983 29.4147L26.7269 32.9824L26.8603 36.7623L46.8479 36.0568ZM55.4778 11.5463L74.3426 4.90417L55.4778 -48.6757L36.6129 4.90417L55.4778 11.5463ZM64.1076 36.0568L84.0952 36.7623L84.2286 32.9824L82.9725 29.4147L64.1076 36.0568ZM85.3488 28.6374L75.4861 0.625328L37.7564 13.9095L47.6191 41.9216L85.3488 28.6374ZM75.4685 0.575482C73.9456 -3.71348 70.9202 -7.85507 66.3317 -10.6041L45.7742 23.709C41.7015 21.269 39.0787 17.634 37.774 13.9594L75.4685 0.575482ZM66.3317 -10.6041C61.6498 -13.409 55.9233 -14.3709 50.3577 -12.9782L60.0677 25.8253C55.0715 27.0756 49.9404 26.205 45.7742 23.709L66.3317 -10.6041ZM50.3232 -12.9696L29.63 -7.75232L39.409 31.0339L60.1022 25.8167L50.3232 -12.9696ZM54.5195 11.6408V2.18674H14.5195V11.6408H54.5195ZM54.5195 2.18674C54.5195 -2.7235 52.8256 -7.86624 49.171 -12.0181L19.1458 14.4108C15.9537 10.7843 14.5195 6.35405 14.5195 2.18674H54.5195ZM49.171 -12.0181C45.4442 -16.252 39.8012 -19.2139 33.2867 -19.2139V20.7861C27.4261 20.7861 22.4102 18.1194 19.1458 14.4108L49.171 -12.0181ZM33.2867 -19.2139C26.7721 -19.2139 21.1291 -16.252 17.4023 -12.0181L47.4275 14.4108C44.1631 18.1194 39.1473 20.7861 33.2867 20.7861V-19.2139ZM17.4023 -12.0181C13.7478 -7.86624 12.0538 -2.7235 12.0538 2.18674H52.0538C52.0538 6.35405 50.6197 10.7843 47.4275 14.4108L17.4023 -12.0181ZM12.0538 2.18674V12.2676H52.0538V2.18674H12.0538ZM27.1565 -7.12357L5.93011 -1.76276L15.7247 37.0195L36.9511 31.6587L27.1565 -7.12357ZM5.91651 -1.75933C2.17084 -0.810548 -1.06048 1.09711 -3.58306 3.52904L24.1791 32.326C21.9615 34.4639 19.0936 36.1662 15.7383 37.0161L5.91651 -1.75933ZM-3.58306 3.52904C-6.0923 5.94812 -7.84738 8.82429 -8.89877 11.7906L28.803 25.1539C27.901 27.6987 26.3834 30.2009 24.1791 32.326L-3.58306 3.52904ZM-8.91276 11.8301L-18.7755 39.8422L18.9542 53.1264L28.8169 25.1143L-8.91276 11.8301ZM-18.7596 39.7972C-19.5899 42.1377 -19.9972 44.5707 -20 46.9827L20 47.0294C19.9976 49.0838 19.651 51.1625 18.9383 53.1713L-18.7596 39.7972ZM-20 47.006C-20 58.0239 -14.3116 66.2493 -7.49016 70.9995C-1.43216 75.218 5.47186 76.8102 11.0956 76.8102V36.8102C12.429 36.8102 13.7852 37.0719 15.368 38.1741C16.3313 38.8449 17.5737 39.9887 18.5638 41.7497C19.6011 43.5945 20 45.4821 20 47.006H-20ZM11.0956 76.8102C16.7192 76.8102 23.6233 75.218 29.6813 70.9995C36.5027 66.2493 42.1911 58.0239 42.1911 47.006H2.19111C2.19111 45.4821 2.59004 43.5945 3.62726 41.7497C4.61738 39.9887 5.85984 38.8449 6.8231 38.1741C8.4059 37.0719 9.76214 36.8102 11.0956 36.8102V76.8102ZM42.1911 46.9827C42.1883 44.5707 41.781 42.1377 40.9507 39.7972L3.25276 53.1713C2.5401 51.1625 2.19352 49.0838 2.19112 47.0294L42.1911 46.9827ZM40.9667 39.8426L31.6434 13.3607L-6.08661 26.6441L3.23674 53.126L40.9667 39.8426ZM17.6681 39.3955L36.9436 34.5354L27.1641 -4.25074L7.88863 0.609349L17.6681 39.3955ZM12.0538 15.1423V62.4126H52.0538V15.1423H12.0538ZM32.0538 42.4126H25.8896V82.4126H32.0538V42.4126ZM25.8896 42.4126C19.3751 42.4126 13.7321 45.3745 10.0052 49.6084L40.0305 76.0373C36.7661 79.7459 31.7502 82.4126 25.8896 82.4126V42.4126ZM10.0052 49.6084C6.35071 53.7603 4.65678 58.903 4.65678 63.8132H44.6568C44.6568 67.9805 43.2226 72.4108 40.0305 76.0373L10.0052 49.6084ZM4.65678 63.8132C4.65678 68.7235 6.35071 73.8662 10.0052 78.0181L40.0305 51.5892C43.2226 55.2157 44.6568 59.646 44.6568 63.8132H4.65678ZM10.0052 78.0181C13.7321 82.252 19.3751 85.2139 25.8896 85.2139V45.2139C31.7502 45.2139 36.7661 47.8806 40.0305 51.5892L10.0052 78.0181ZM25.8896 85.2139H40.6837V45.2139H25.8896V85.2139ZM40.6837 85.2139C47.1982 85.2139 52.8412 82.252 56.5681 78.0181L26.5428 51.5892C29.8072 47.8806 34.8232 45.2139 40.6837 45.2139V85.2139ZM56.5681 78.0181C60.2226 73.8662 61.9165 68.7235 61.9165 63.8132H21.9165C21.9165 59.646 23.3507 55.2157 26.5428 51.5892L56.5681 78.0181ZM61.9165 63.8132C61.9165 58.903 60.2226 53.7603 56.5681 49.6084L26.5428 76.0373C23.3507 72.4108 21.9165 67.9805 21.9165 63.8132H61.9165ZM56.5681 49.6084C52.8412 45.3745 47.1982 42.4126 40.6837 42.4126V82.4126C34.8232 82.4126 29.8072 79.7459 26.5428 76.0373L56.5681 49.6084ZM40.6837 42.4126H34.5195V82.4126H40.6837V42.4126ZM54.5195 62.4126V14.5155H14.5195V62.4126H54.5195ZM39.4151 33.9071L58.3608 29.124L48.5695 -9.65908L29.6239 -4.87603L39.4151 33.9071ZM34.5989 3.09444L25.6053 28.6554L63.3379 41.9315L72.3314 16.3705L34.5989 3.09444ZM25.6237 28.6035C24.8146 30.883 24.407 33.2499 24.3832 35.599L64.3812 36.0034C64.361 38.0043 64.014 40.0269 63.3195 41.9835L25.6237 28.6035ZM24.3822 35.8012C24.3822 46.8191 30.0706 55.0445 36.8921 59.7946C42.9501 64.0132 49.8541 65.6054 55.4778 65.6054V25.6054C56.8112 25.6054 58.1674 25.8671 59.7502 26.9693C60.7135 27.6401 61.9559 28.7838 62.9461 30.5449C63.9833 32.3897 64.3822 34.2773 64.3822 35.8012H24.3822ZM55.4778 65.6054C61.1015 65.6054 68.0055 64.0132 74.0635 59.7946C80.8849 55.0445 86.5733 46.8191 86.5733 35.8012H46.5733C46.5733 34.2773 46.9723 32.3897 48.0095 30.5449C48.9996 28.7838 50.2421 27.6401 51.2053 26.9693C52.7881 25.8671 54.1443 25.6054 55.4778 25.6054V65.6054ZM86.5733 35.7779C86.5705 33.366 86.1633 30.9331 85.3329 28.5924L47.635 41.9665C46.9223 39.9576 46.5757 37.8788 46.5733 35.8245L86.5733 35.7779ZM11.0956 34.009C12.1787 34.009 12.8591 34.1311 13.2546 34.2205C13.6937 34.3198 14.4891 34.5401 15.5011 35.0845C16.5169 35.6308 18.2353 36.7703 19.7746 38.8921C21.4546 41.2078 22.3608 43.9387 22.4532 46.5561L-17.5219 47.9672C-17.1015 59.8753 -9.51511 67.0479 -3.44705 70.3118C1.88569 73.1802 7.39115 74.009 11.0956 74.009V34.009ZM21.3305 53.9037L29.9604 29.3932L-7.7693 16.109L-16.3992 40.6195L21.3305 53.9037ZM-7.7693 29.3932L0.860577 53.9037L38.5903 40.6195L29.9604 16.109L-7.7693 29.3932ZM-0.262124 46.5561C-0.169733 43.9387 0.736524 41.2078 2.41652 38.8921C3.95586 36.7703 5.6742 35.6308 6.68998 35.0845C7.702 34.5401 8.49739 34.3198 8.93648 34.2205C9.33199 34.1311 10.0124 34.009 11.0956 34.009V74.009C14.8 74.009 20.3054 73.1802 25.6382 70.3118C31.7062 67.0479 39.2926 59.8753 39.713 47.9672L-0.262124 46.5561ZM55.4778 22.8042C56.5609 22.8042 57.2413 22.9263 57.6368 23.0157C58.0759 23.115 58.8713 23.3353 59.8833 23.8797C60.8991 24.426 62.6175 25.5655 64.1568 27.6873C65.8368 30.0029 66.743 32.7338 66.8354 35.3513L26.8603 36.7623C27.2807 48.6705 34.8671 55.8431 40.9352 59.107C46.2679 61.9754 51.7734 62.8042 55.4778 62.8042V22.8042ZM65.7127 42.6989L74.3426 18.1884L36.6129 4.90417L27.983 29.4147L65.7127 42.6989ZM36.6129 18.1884L45.2428 42.6989L82.9725 29.4147L74.3426 4.90417L36.6129 18.1884ZM44.1201 35.3513C44.2125 32.7338 45.1187 30.0029 46.7987 27.6873C48.3381 25.5655 50.0564 24.426 51.0722 23.8797C52.0842 23.3353 52.8796 23.115 53.3187 23.0157C53.7142 22.9263 54.3946 22.8042 55.4778 22.8042V62.8042C59.1822 62.8042 64.6876 61.9754 70.0204 59.107C76.0884 55.8431 83.6749 48.6705 84.0952 36.7623L44.1201 35.3513Z" fill="white" mask="url(#path-1-inside-1_664_5399)"/>
</svg>
