<svg width="66" height="72" viewBox="0 0 66 72" fill="none" xmlns="http://www.w3.org/2000/svg">
<g clip-path="url(#clip0_664_5411)">
<path d="M57.037 45H65.1852V72H32.5926V45H40.7407V36H57.037V45ZM44.8148 45H52.963V40.5H44.8148V45ZM61.1111 58.5H57.037V63H52.963V58.5H44.8148V63H40.7407V58.5H36.6667V67.5H61.1111V58.5ZM36.6667 49.5V54H61.1111V49.5H36.6667ZM28.5185 31.5C28.5185 33.6797 28.0835 35.7188 27.2135 37.6172C26.3436 39.5156 25.1022 41.1094 23.4896 42.3984C24.4444 42.9375 25.3463 43.5586 26.195 44.2617C27.0438 44.9648 27.8183 45.75 28.5185 46.6172V58.5C28.5185 56.6484 28.2002 54.9023 27.5637 53.2617C26.9271 51.6211 26.0571 50.1914 24.9537 48.9727C23.8503 47.7539 22.5453 46.7812 21.0388 46.0547C19.5322 45.3281 17.9514 44.9766 16.2963 45C14.5988 45 13.0179 45.3516 11.5538 46.0547C10.0897 46.7578 8.79533 47.7188 7.67072 48.9375C6.5461 50.1562 5.66551 51.5977 5.02894 53.2617C4.39236 54.9258 4.07407 56.6719 4.07407 58.5H0C0 56.7891 0.212191 55.1367 0.636574 53.543C1.06096 51.9492 1.6657 50.4375 2.45081 49.0078C3.23592 47.5781 4.20139 46.3125 5.34722 45.2109C6.49306 44.1094 7.74499 43.1602 9.10301 42.3633C7.51157 41.0977 6.28086 39.5156 5.41088 37.6172C4.5409 35.7188 4.09529 33.6797 4.07407 31.5C4.07407 29.6484 4.39236 27.9023 5.02894 26.2617C5.66551 24.6211 6.53549 23.1914 7.63889 21.9727C8.74228 20.7539 10.0367 19.7812 11.522 19.0547C13.0073 18.3281 14.5988 17.9766 16.2963 18C17.8241 18 19.2776 18.293 20.6568 18.8789C22.0361 19.4648 23.2986 20.332 24.4444 21.4805C25.1235 20.8008 25.8767 20.2031 26.7043 19.6875C25.9828 18.8672 25.4311 17.918 25.0492 16.8398C24.6672 15.7617 24.4657 14.6484 24.4444 13.5C24.4444 12.2578 24.6566 11.0977 25.081 10.0195C25.5054 8.94141 26.0889 7.98047 26.8316 7.13672C27.5743 6.29297 28.4336 5.64844 29.4097 5.20312C30.3858 4.75781 31.4468 4.52344 32.5926 4.5C33.7172 4.5 34.7676 4.73438 35.7436 5.20312C36.7197 5.67188 37.5897 6.31641 38.3536 7.13672C39.1175 7.95703 39.701 8.90625 40.1042 9.98438C40.5073 11.0625 40.7195 12.2344 40.7407 13.5C40.7407 14.6484 40.5498 15.7617 40.1678 16.8398C39.7859 17.918 39.2236 18.8672 38.4809 19.6875C40.2421 20.7656 41.6744 22.2188 42.7778 24.0469C43.8812 22.2188 45.3135 20.7656 47.0747 19.6875C46.3532 18.8672 45.8015 17.918 45.4196 16.8398C45.0376 15.7617 44.836 14.6484 44.8148 13.5C44.8148 12.2578 45.027 11.0977 45.4514 10.0195C45.8758 8.94141 46.4593 7.98047 47.202 7.13672C47.9446 6.29297 48.804 5.64844 49.7801 5.20312C50.7562 4.75781 51.8171 4.52344 52.963 4.5C54.0876 4.5 55.1379 4.73438 56.114 5.20312C57.0901 5.67188 57.9601 6.31641 58.724 7.13672C59.4879 7.95703 60.0714 8.90625 60.4745 9.98438C60.8777 11.0625 61.0899 12.2344 61.1111 13.5C61.1111 14.6484 60.9201 15.7617 60.5382 16.8398C60.1563 17.918 59.5939 18.8672 58.8513 19.6875C59.8274 20.2734 60.708 20.9883 61.4931 21.832C62.2782 22.6758 62.936 23.6016 63.4664 24.6094C63.9969 25.6172 64.4213 26.7188 64.7396 27.9141C65.0579 29.1094 65.2064 30.3047 65.1852 31.5H61.1111C61.1111 30.2578 60.8989 29.0977 60.4745 28.0195C60.0502 26.9414 59.4666 25.9805 58.724 25.1367C57.9813 24.293 57.1219 23.6484 56.1458 23.2031C55.1698 22.7578 54.1088 22.5234 52.963 22.5C51.8384 22.5 50.788 22.7344 49.8119 23.2031C48.8358 23.6719 47.9659 24.3164 47.202 25.1367C46.4381 25.957 45.8546 26.9062 45.4514 27.9844C45.0482 29.0625 44.836 30.2344 44.8148 31.5H40.7407C40.7407 30.2578 40.5286 29.0977 40.1042 28.0195C39.6798 26.9414 39.0963 25.9805 38.3536 25.1367C37.6109 24.293 36.7515 23.6484 35.7755 23.2031C34.7994 22.7578 33.7384 22.5234 32.5926 22.5C31.5529 22.5 30.5449 22.7109 29.5689 23.1328C28.5928 23.5547 27.7334 24.1758 26.9907 24.9961C27.5 25.9805 27.8819 27.0234 28.1366 28.125C28.3912 29.2266 28.5185 30.3516 28.5185 31.5ZM52.963 9C52.39 9 51.8596 9.11719 51.3715 9.35156C50.8835 9.58594 50.4591 9.90234 50.0984 10.3008C49.7377 10.6992 49.4406 11.1797 49.2072 11.7422C48.9738 12.3047 48.8677 12.8906 48.8889 13.5C48.8889 14.1328 48.995 14.7188 49.2072 15.2578C49.4194 15.7969 49.7058 16.2656 50.0666 16.6641C50.4273 17.0625 50.8623 17.3906 51.3715 17.6484C51.8808 17.9062 52.4113 18.0234 52.963 18C53.5359 18 54.0664 17.8828 54.5544 17.6484C55.0424 17.4141 55.4668 17.0977 55.8275 16.6992C56.1883 16.3008 56.4853 15.8203 56.7188 15.2578C56.9522 14.6953 57.0583 14.1094 57.037 13.5C57.037 12.8672 56.9309 12.2812 56.7188 11.7422C56.5066 11.2031 56.2201 10.7344 55.8594 10.3359C55.4987 9.9375 55.0637 9.60938 54.5544 9.35156C54.0451 9.09375 53.5147 8.97656 52.963 9ZM32.5926 9C32.0197 9 31.4892 9.11719 31.0012 9.35156C30.5131 9.58594 30.0887 9.90234 29.728 10.3008C29.3673 10.6992 29.0702 11.1797 28.8368 11.7422C28.6034 12.3047 28.4973 12.8906 28.5185 13.5C28.5185 14.1328 28.6246 14.7188 28.8368 15.2578C29.049 15.7969 29.3355 16.2656 29.6962 16.6641C30.0569 17.0625 30.4919 17.3906 31.0012 17.6484C31.5104 17.9062 32.0409 18.0234 32.5926 18C33.1655 18 33.696 17.8828 34.184 17.6484C34.6721 17.4141 35.0965 17.0977 35.4572 16.6992C35.8179 16.3008 36.115 15.8203 36.3484 15.2578C36.5818 14.6953 36.6879 14.1094 36.6667 13.5C36.6667 12.8672 36.5606 12.2812 36.3484 11.7422C36.1362 11.2031 35.8497 10.7344 35.489 10.3359C35.1283 9.9375 34.6933 9.60938 34.184 9.35156C33.6748 9.09375 33.1443 8.97656 32.5926 9ZM16.2963 40.5C17.4209 40.5 18.4713 40.2656 19.4473 39.7969C20.4234 39.3281 21.2934 38.6836 22.0573 37.8633C22.8212 37.043 23.4047 36.0938 23.8079 35.0156C24.211 33.9375 24.4232 32.7656 24.4444 31.5C24.4444 30.2578 24.2323 29.0977 23.8079 28.0195C23.3835 26.9414 22.8 25.9805 22.0573 25.1367C21.3146 24.293 20.4552 23.6484 19.4792 23.2031C18.5031 22.7578 17.4421 22.5234 16.2963 22.5C15.1717 22.5 14.1213 22.7344 13.1453 23.2031C12.1692 23.6719 11.2992 24.3164 10.5353 25.1367C9.77141 25.957 9.18789 26.9062 8.78472 27.9844C8.38156 29.0625 8.16937 30.2344 8.14815 31.5C8.14815 32.7422 8.36034 33.9023 8.78472 34.9805C9.20911 36.0586 9.79263 37.0195 10.5353 37.8633C11.278 38.707 12.1373 39.3516 13.1134 39.7969C14.0895 40.2422 15.1505 40.4766 16.2963 40.5Z" fill="white"/>
</g>
<defs>
<clipPath id="clip0_664_5411">
<rect width="65.1852" height="72" fill="white"/>
</clipPath>
</defs>
</svg>
