<svg width="19" height="21" viewBox="0 0 19 21" fill="none" xmlns="http://www.w3.org/2000/svg">
<path d="M7.5 19H11.5C11.5 19.5304 11.2893 20.0391 10.9142 20.4142C10.5391 20.7893 10.0304 21 9.5 21C8.96957 21 8.46086 20.7893 8.08579 20.4142C7.71071 20.0391 7.5 19.5304 7.5 19ZM18.5 17V18H0.5V17L2.5 15V9C2.5 5.9 4.53 3.17 7.5 2.29V2C7.5 1.46957 7.71071 0.960859 8.08579 0.585786C8.46086 0.210714 8.96957 0 9.5 0C10.0304 0 10.5391 0.210714 10.9142 0.585786C11.2893 0.960859 11.5 1.46957 11.5 2V2.29C14.47 3.17 16.5 5.9 16.5 9V15L18.5 17ZM12.5 7H6.5V9H9.74L6.5 11.7V14H12.5V12H9.26L12.5 9.3V7Z" fill="#FFC000"/>
</svg>
