<svg xmlns="http://www.w3.org/2000/svg" width="20" height="21" viewBox="0 0 20 21" fill="none">
<path d="M9.98708 0C4.86114 0 0.708008 4.6996 0.708008 10.5C0.708008 16.3004 4.86114 21 9.98708 21C15.113 21 19.2661 16.3004 19.2661 10.5C19.2661 4.6996 15.113 0 9.98708 0ZM9.38843 13.8871C9.38843 14.2597 9.11904 14.5645 8.78978 14.5645H6.99383C6.66457 14.5645 6.39518 14.2597 6.39518 13.8871V7.1129C6.39518 6.74032 6.66457 6.43548 6.99383 6.43548H8.78978C9.11904 6.43548 9.38843 6.74032 9.38843 7.1129V13.8871ZM13.579 13.8871C13.579 14.2597 13.3096 14.5645 12.9803 14.5645H11.1844C10.8551 14.5645 10.5857 14.2597 10.5857 13.8871V7.1129C10.5857 6.74032 10.8551 6.43548 11.1844 6.43548H12.9803C13.3096 6.43548 13.579 6.74032 13.579 7.1129V13.8871Z" fill="black" fill-opacity="0.29"/>
</svg>