<svg width="21" height="21" viewBox="0 0 21 21" fill="none" xmlns="http://www.w3.org/2000/svg">
<rect width="21" height="21" fill="white"/>
<path d="M4.2002 7.35V0H16.8002V7.35" fill="#ECF8FF"/>
<path d="M4.2 16.8001H2.1C1.54305 16.8001 1.0089 16.5788 0.615076 16.185C0.221249 15.7912 0 15.2571 0 14.7001V9.4501C0 8.89314 0.221249 8.359 0.615076 7.96517C1.0089 7.57135 1.54305 7.3501 2.1 7.3501H18.9C19.457 7.3501 19.9911 7.57135 20.3849 7.96517C20.7787 8.359 21 8.89314 21 9.4501V14.7001C21 15.2571 20.7787 15.7912 20.3849 16.185C19.9911 16.5788 19.457 16.8001 18.9 16.8001H16.8" fill="#8A92A6"/>
<path d="M16.8002 12.6001H4.2002V21.0001H16.8002V12.6001Z" fill="#ECF8FF"/>
</svg>
