<svg width="20" height="15" viewBox="0 0 20 15" fill="none" xmlns="http://www.w3.org/2000/svg">
<path d="M18.7661 10.0721C18.8446 9.64664 18.8446 9.21216 18.7661 8.78674L19.5446 8.33718C19.6351 8.28589 19.6743 8.18029 19.6441 8.08072C19.442 7.42901 19.095 6.83764 18.6424 6.34885C18.573 6.27342 18.4614 6.25532 18.3709 6.30661L17.5924 6.75617C17.2636 6.47558 16.8864 6.25834 16.4791 6.11351V5.21439C16.4791 5.11181 16.4067 5.02129 16.3071 5.00017C15.6343 4.84931 14.9494 4.85535 14.3097 5.00017C14.2102 5.02129 14.1378 5.11181 14.1378 5.21439V6.11351C13.7304 6.25834 13.3533 6.47558 13.0244 6.75617L12.246 6.30661C12.1585 6.25532 12.0438 6.27342 11.9744 6.34885C11.5219 6.83764 11.1749 7.42901 10.9727 8.08072C10.9426 8.18029 10.9848 8.28589 11.0723 8.33718L11.8507 8.78674C11.7723 9.21216 11.7723 9.64664 11.8507 10.0721L11.0723 10.5216C10.9818 10.5729 10.9426 10.6785 10.9727 10.7781C11.1749 11.4298 11.5219 12.0181 11.9744 12.51C12.0438 12.5854 12.1555 12.6035 12.246 12.5522L13.0244 12.1026C13.3533 12.3832 13.7304 12.6005 14.1378 12.7453V13.6444C14.1378 13.747 14.2102 13.8375 14.3097 13.8586C14.9826 14.0095 15.6675 14.0035 16.3071 13.8586C16.4067 13.8375 16.4791 13.747 16.4791 13.6444V12.7453C16.8864 12.6005 17.2636 12.3832 17.5924 12.1026L18.3709 12.5522C18.4584 12.6035 18.573 12.5854 18.6424 12.51C19.095 12.0212 19.442 11.4298 19.6441 10.7781C19.6743 10.6785 19.6321 10.5729 19.5446 10.5216L18.7661 10.0721ZM15.3114 10.8927C14.5028 10.8927 13.8481 10.235 13.8481 9.4294C13.8481 8.62381 14.5059 7.96607 15.3114 7.96607C16.117 7.96607 16.7748 8.62381 16.7748 9.4294C16.7748 10.235 16.12 10.8927 15.3114 10.8927ZM3.24269 6.5329C4.30776 6.5329 5.17369 5.66697 5.17369 4.6019C5.17369 3.53684 4.30776 2.6709 3.24269 2.6709C2.17762 2.6709 1.31169 3.53684 1.31169 4.6019C1.31169 5.66697 2.17762 6.5329 3.24269 6.5329ZM10.0012 7.4984C10.0585 7.4984 10.1128 7.48332 10.1702 7.4803C10.4206 6.82557 10.7887 6.21006 11.2654 5.69412C11.4887 5.45275 11.8055 5.31396 12.1374 5.31396C12.3455 5.31396 12.5507 5.36827 12.7287 5.47387L12.9671 5.61266C12.9912 5.59757 13.0154 5.58551 13.0395 5.57042C13.2507 5.12991 13.3774 4.64113 13.3774 4.12217C13.3774 2.25453 11.8658 0.74292 9.99817 0.74292C8.13053 0.74292 6.62194 2.25151 6.62194 4.11915C6.62194 5.98679 8.13355 7.4984 10.0012 7.4984ZM13.1753 13.3668C13.1059 13.3306 13.0365 13.2884 12.9701 13.2492C12.7227 13.394 12.5085 13.5448 12.1404 13.5448C11.8115 13.5448 11.4947 13.4061 11.2684 13.1647C10.7163 12.5673 10.2939 11.8401 10.0555 11.0647C9.73266 10.0238 10.8068 9.56518 10.8339 9.54707C10.8309 9.46863 10.8309 9.39018 10.8339 9.31173L10.5956 9.17294C10.4809 9.10656 10.3844 9.02208 10.2999 8.92855C10.2003 8.93458 10.1038 8.94665 10.0042 8.94665C9.26198 8.94665 8.56803 8.76562 7.93743 8.4639H7.68701C5.76506 8.4639 4.20819 10.0208 4.20819 11.9397V12.8087C4.20819 13.6082 4.85689 14.2569 5.65644 14.2569H13.3623C13.2507 14.0759 13.1753 13.8707 13.1753 13.6444V13.3668ZM5.56894 8.0596C5.21895 7.71262 4.73922 7.4984 4.20819 7.4984H2.27719C1.21212 7.4984 0.346191 8.36434 0.346191 9.4294V10.3949C0.346191 10.9289 0.777649 11.3604 1.31169 11.3604H3.30002C3.4901 9.93025 4.35302 8.7264 5.56894 8.0596Z" fill="#C21500"/>
</svg>
