<svg width="19" height="18" viewBox="0 0 19 18" fill="none" xmlns="http://www.w3.org/2000/svg">
<path d="M2.5 18C1.95 18 1.479 17.804 1.087 17.412C0.695002 17.02 0.499335 16.5493 0.500002 16V2C0.500002 1.45 0.696002 0.979002 1.088 0.587002C1.48 0.195002 1.95067 -0.000664969 2.5 1.69779e-06H13.675C13.9417 1.69779e-06 14.196 0.0500018 14.438 0.150002C14.68 0.250002 14.8923 0.391668 15.075 0.575002L17.925 3.425C18.1083 3.60834 18.25 3.821 18.35 4.063C18.45 4.305 18.5 4.559 18.5 4.825V16C18.5 16.55 18.304 17.021 17.912 17.413C17.52 17.805 17.0493 18.0007 16.5 18H2.5ZM16.5 4.85L13.65 2H2.5V16H16.5V4.85ZM9.5 15C10.3333 15 11.0417 14.7083 11.625 14.125C12.2083 13.5417 12.5 12.8333 12.5 12C12.5 11.1667 12.2083 10.4583 11.625 9.875C11.0417 9.29167 10.3333 9 9.5 9C8.66667 9 7.95834 9.29167 7.375 9.875C6.79167 10.4583 6.5 11.1667 6.5 12C6.5 12.8333 6.79167 13.5417 7.375 14.125C7.95834 14.7083 8.66667 15 9.5 15ZM4.5 7H11.5C11.7833 7 12.021 6.904 12.213 6.712C12.405 6.52 12.5007 6.28267 12.5 6V4C12.5 3.71667 12.404 3.479 12.212 3.287C12.02 3.095 11.7827 2.99934 11.5 3H4.5C4.21667 3 3.979 3.096 3.787 3.288C3.595 3.48 3.49934 3.71734 3.5 4V6C3.5 6.28334 3.596 6.521 3.788 6.713C3.98 6.905 4.21734 7.00067 4.5 7ZM2.5 4.85V16V2V4.85Z" fill="#F10035"/>
</svg>
