<svg width="21" height="21" viewBox="0 0 21 21" fill="none" xmlns="http://www.w3.org/2000/svg">
<path d="M10.5 0.5C12.0524 0.499943 13.5444 1.10157 14.6625 2.17847C15.7806 3.25537 16.4378 4.72371 16.496 6.275L16.5 6.5H17.5C18.0046 6.49984 18.4906 6.69041 18.8605 7.0335C19.2305 7.37659 19.4572 7.84685 19.495 8.35L19.5 8.5V18.5C19.5002 19.0046 19.3096 19.4906 18.9665 19.8605C18.6234 20.2305 18.1532 20.4572 17.65 20.495L17.5 20.5H3.5C2.99542 20.5002 2.50943 20.3096 2.13945 19.9665C1.76947 19.6234 1.54284 19.1532 1.505 18.65L1.5 18.5V8.5C1.49984 7.99542 1.69041 7.50943 2.0335 7.13945C2.37659 6.76947 2.84684 6.54284 3.35 6.505L3.5 6.5H4.5C4.5 4.9087 5.13214 3.38258 6.25736 2.25736C7.38258 1.13214 8.9087 0.5 10.5 0.5ZM17.5 8.5H3.5V18.5H17.5V8.5ZM10.5 10.5C10.9266 10.5001 11.342 10.6367 11.6854 10.8896C12.0289 11.1426 12.2825 11.4988 12.4092 11.9062C12.5358 12.3135 12.5289 12.7507 12.3895 13.1538C12.25 13.557 11.9853 13.905 11.634 14.147L11.5 14.232V15.5C11.4997 15.7549 11.4021 16 11.2272 16.1854C11.0522 16.3707 10.813 16.4822 10.5586 16.4972C10.3042 16.5121 10.0536 16.4293 9.85817 16.2657C9.66271 16.1021 9.5371 15.8701 9.507 15.617L9.5 15.5V14.232C9.11874 14.0119 8.82077 13.6721 8.65231 13.2653C8.48384 12.8586 8.45429 12.4076 8.56824 11.9824C8.68219 11.5571 8.93326 11.1813 9.28253 10.9133C9.6318 10.6453 10.0597 10.5 10.5 10.5ZM10.5 2.5C9.43913 2.5 8.42172 2.92143 7.67157 3.67157C6.92143 4.42172 6.5 5.43913 6.5 6.5H14.5C14.5 5.43913 14.0786 4.42172 13.3284 3.67157C12.5783 2.92143 11.5609 2.5 10.5 2.5Z" fill="#C21500"/>
</svg>
