<svg width="21" height="18" viewBox="0 0 21 18" fill="none" xmlns="http://www.w3.org/2000/svg">
<path d="M3.36017 8.16427L7.24907 12.1154C7.4252 12.2938 7.5283 12.5334 7.53765 12.786C7.54699 13.0385 7.46189 13.2853 7.29946 13.4767C7.13702 13.6681 6.90929 13.7899 6.66205 13.8176C6.41482 13.8454 6.16641 13.777 5.96677 13.6262L5.85652 13.5289L0.288954 7.87224C0.121901 7.70283 0.0203246 7.47806 0.0027377 7.23892C-0.0148493 6.99978 0.0527242 6.76218 0.193142 6.56942L0.288954 6.45741L5.85652 0.799435C6.03167 0.6182 6.26812 0.511458 6.51789 0.50087C6.76766 0.490282 7.01204 0.576643 7.20143 0.742425C7.39082 0.908207 7.51104 1.14099 7.53768 1.39353C7.56432 1.64607 7.49539 1.89945 7.34488 2.10225L7.24907 2.21426L3.36017 6.16404L10.8282 6.16404C13.47 6.16408 16.0082 7.20836 17.9056 9.07592C19.803 10.9435 20.9109 13.4878 20.9947 16.1705L21 16.4999C21 16.7651 20.8963 17.0195 20.7117 17.2071C20.5271 17.3946 20.2767 17.5 20.0156 17.5C19.7546 17.5 19.5042 17.3946 19.3196 17.2071C19.135 17.0195 19.0313 16.7651 19.0313 16.4999C19.0313 14.3425 18.2081 12.2692 16.7345 10.7159C15.261 9.1626 13.252 8.25033 11.1301 8.17094L10.8282 8.16427L3.36017 8.16427Z" fill="#F10035"/>
</svg>
