<svg width="22" height="21" viewBox="0 0 22 21" fill="none" xmlns="http://www.w3.org/2000/svg">
<g clip-path="url(#clip0_1368_7548)">
<path d="M7.32959 2.625H3.82959C3.34634 2.625 2.95459 3.01675 2.95459 3.5V7C2.95459 7.48325 3.34634 7.875 3.82959 7.875H7.32959C7.81284 7.875 8.20459 7.48325 8.20459 7V3.5C8.20459 3.01675 7.81284 2.625 7.32959 2.625Z" fill="#8F9294" stroke="#8F9294" stroke-width="2" stroke-linecap="round" stroke-linejoin="round"/>
<path d="M17.8296 13.125H14.3296C13.8463 13.125 13.4546 13.5168 13.4546 14V17.5C13.4546 17.9832 13.8463 18.375 14.3296 18.375H17.8296C18.3128 18.375 18.7046 17.9832 18.7046 17.5V14C18.7046 13.5168 18.3128 13.125 17.8296 13.125Z" fill="#D9D9D9" stroke="#D9D9D9" stroke-width="2" stroke-linecap="round" stroke-linejoin="round"/>
<path d="M18.7046 9.625V7C18.7046 6.53587 18.5202 6.09075 18.192 5.76256C17.8638 5.43437 17.4187 5.25 16.9546 5.25H11.7046L14.3296 2.625" stroke="#D9D9D9" stroke-width="2" stroke-linecap="round" stroke-linejoin="round"/>
<path d="M2.95459 11.375V14C2.95459 14.4641 3.13896 14.9092 3.46715 15.2374C3.79534 15.5656 4.24046 15.75 4.70459 15.75H9.95459L7.32959 18.375" stroke="#D9D9D9" stroke-width="2" stroke-linecap="round" stroke-linejoin="round"/>
</g>
<defs>
<clipPath id="clip0_1368_7548">
<rect width="21" height="21" fill="white" transform="translate(0.32959)"/>
</clipPath>
</defs>
</svg>
