<svg width="22" height="21" viewBox="0 0 22 21" fill="none" xmlns="http://www.w3.org/2000/svg">
<path d="M19.7656 13.0723C19.8441 12.6469 19.8441 12.2124 19.7656 11.787L20.5441 11.3374C20.6346 11.2861 20.6738 11.1805 20.6436 11.081C20.4415 10.4293 20.0945 9.83788 19.6419 9.3491C19.5725 9.27367 19.4609 9.25557 19.3704 9.30686L18.5919 9.75642C18.2631 9.47582 17.8859 9.25858 17.4786 9.11376V8.21464C17.4786 8.11205 17.4062 8.02154 17.3066 8.00042C16.6338 7.84956 15.9489 7.85559 15.3092 8.00042C15.2097 8.02154 15.1373 8.11205 15.1373 8.21464V9.11376C14.7299 9.25858 14.3528 9.47582 14.0239 9.75642L13.2455 9.30686C13.158 9.25557 13.0433 9.27367 12.9739 9.3491C12.5214 9.83788 12.1744 10.4293 11.9722 11.081C11.9421 11.1805 11.9843 11.2861 12.0718 11.3374L12.8502 11.787C12.7718 12.2124 12.7718 12.6469 12.8502 13.0723L12.0718 13.5219C11.9813 13.5732 11.9421 13.6788 11.9722 13.7783C12.1744 14.43 12.5214 15.0184 12.9739 15.5102C13.0433 15.5856 13.155 15.6037 13.2455 15.5524L14.0239 15.1029C14.3528 15.3835 14.7299 15.6007 15.1373 15.7455V16.6447C15.1373 16.7472 15.2097 16.8378 15.3092 16.8589C15.9821 17.0097 16.667 17.0037 17.3066 16.8589C17.4062 16.8378 17.4786 16.7472 17.4786 16.6447V15.7455C17.8859 15.6007 18.2631 15.3835 18.5919 15.1029L19.3704 15.5524C19.4579 15.6037 19.5725 15.5856 19.6419 15.5102C20.0945 15.0214 20.4415 14.43 20.6436 13.7783C20.6738 13.6788 20.6316 13.5732 20.5441 13.5219L19.7656 13.0723ZM16.311 13.893C15.5023 13.893 14.8476 13.2352 14.8476 12.4296C14.8476 11.6241 15.5054 10.9663 16.311 10.9663C17.1165 10.9663 17.7743 11.6241 17.7743 12.4296C17.7743 13.2352 17.1196 13.893 16.311 13.893ZM4.2422 9.53315C5.30727 9.53315 6.1732 8.66721 6.1732 7.60215C6.1732 6.53708 5.30727 5.67115 4.2422 5.67115C3.17714 5.67115 2.3112 6.53708 2.3112 7.60215C2.3112 8.66721 3.17714 9.53315 4.2422 9.53315ZM11.0007 10.4986C11.058 10.4986 11.1123 10.4836 11.1697 10.4805C11.4201 9.82581 11.7882 9.21031 12.2649 8.69437C12.4882 8.45299 12.805 8.3142 13.1369 8.3142C13.3451 8.3142 13.5502 8.36851 13.7282 8.47411L13.9666 8.6129C13.9907 8.59782 14.0149 8.58575 14.039 8.57066C14.2502 8.13015 14.3769 7.64137 14.3769 7.12241C14.3769 5.25478 12.8653 3.74316 10.9977 3.74316C9.13005 3.74316 7.62145 5.25176 7.62145 7.1194C7.62145 8.98704 9.13306 10.4986 11.0007 10.4986ZM14.1748 16.3671C14.1054 16.3309 14.036 16.2886 13.9696 16.2494C13.7222 16.3942 13.508 16.5451 13.1399 16.5451C12.811 16.5451 12.4942 16.4063 12.2679 16.1649C11.7158 15.5675 11.2934 14.8404 11.055 14.065C10.7322 13.024 11.8063 12.5654 11.8334 12.5473C11.8304 12.4689 11.8304 12.3904 11.8334 12.312L11.5951 12.1732C11.4804 12.1068 11.3839 12.0223 11.2994 11.9288C11.1998 11.9348 11.1033 11.9469 11.0037 11.9469C10.2615 11.9469 9.56754 11.7659 8.93695 11.4641H8.68652C6.76457 11.4641 5.2077 13.021 5.2077 14.9399V15.8089C5.2077 16.6085 5.8564 17.2571 6.65595 17.2571H14.3618C14.2502 17.0761 14.1748 16.8709 14.1748 16.6447V16.3671ZM6.56845 11.0598C6.21846 10.7129 5.73873 10.4986 5.2077 10.4986H3.2767C2.21164 10.4986 1.3457 11.3646 1.3457 12.4296V13.3951C1.3457 13.9292 1.77716 14.3606 2.3112 14.3606H4.29953C4.48961 12.9305 5.35253 11.7266 6.56845 11.0598Z" fill="#8F9294"/>
</svg>
