<svg width="22" height="21" viewBox="0 0 22 21" fill="none" xmlns="http://www.w3.org/2000/svg">
<rect opacity="0.3" width="13.6216" height="2.33333" rx="1.16667" transform="matrix(-1 0 0 1 19.6265 9.33374)" fill="#8F9294"/>
<path d="M17.5695 10.1968L15.49 8.4158C14.9639 7.96519 14.9274 7.16397 15.4105 6.66748C15.8625 6.20298 16.6016 6.18123 17.0801 6.61836L20.5215 9.76236C20.9555 10.1589 20.9555 10.8424 20.5215 11.2389L17.0801 14.3829C16.6016 14.8201 15.8625 14.7983 15.4105 14.3338C14.9274 13.8373 14.9639 13.0361 15.49 12.5855L17.5695 10.8045C17.7559 10.6448 17.7559 10.3565 17.5695 10.1968Z" fill="#8F9294"/>
<path opacity="0.5" d="M15.0864 2V3.66667C15.0864 4.21895 14.6387 4.66667 14.0864 4.66667H13.8162C13.2639 4.66667 12.8162 4.21895 12.8162 3.66667V3.33333C12.8162 2.78105 12.3684 2.33333 11.8162 2.33333H3.59994C3.04765 2.33333 2.59994 2.78105 2.59994 3.33333V17.6667C2.59994 18.219 3.04765 18.6667 3.59994 18.6667H11.8162C12.3684 18.6667 12.8162 18.219 12.8162 17.6667V17.3333C12.8162 16.781 13.2639 16.3333 13.8162 16.3333H14.0864C14.6387 16.3333 15.0864 16.781 15.0864 17.3333V19C15.0864 20.1046 14.191 21 13.0864 21H2.32967C1.2251 21 0.329668 20.1046 0.329668 19V2C0.329668 0.895431 1.2251 0 2.32967 0H13.0864C14.191 0 15.0864 0.89543 15.0864 2Z" fill="#8F9294"/>
</svg>
