<svg width="21" height="21" viewBox="0 0 21 21" fill="none" xmlns="http://www.w3.org/2000/svg">
<path d="M7.21875 8.8595H13.7812C14.1438 8.8595 14.4375 8.56583 14.4375 8.20325V7.547C14.4375 7.18442 14.1438 6.89075 13.7812 6.89075H7.21875C6.85617 6.89075 6.5625 7.18442 6.5625 7.547V8.20325C6.5625 8.56583 6.85617 8.8595 7.21875 8.8595ZM6.5625 12.1408C6.5625 12.5033 6.85617 12.797 7.21875 12.797H13.7812C14.1438 12.797 14.4375 12.5033 14.4375 12.1408V11.4845C14.4375 11.1219 14.1438 10.8283 13.7812 10.8283H7.21875C6.85617 10.8283 6.5625 11.1219 6.5625 11.4845V12.1408ZM10.5 17.109C9.82652 17.109 9.15305 16.9014 8.57801 16.4859L0 10.2893V19.0314C0 20.1187 0.881426 21.0001 1.96875 21.0001H19.0312C20.1186 21.0001 21 20.1187 21 19.0314V10.2893L12.422 16.4859C11.847 16.901 11.1735 17.109 10.5 17.109ZM20.2457 6.68362C19.8827 6.39897 19.5386 6.13114 19.0312 5.74806V3.93763C19.0312 2.8503 18.1498 1.96888 17.0625 1.96888H13.8817C13.7571 1.87864 13.641 1.79415 13.511 1.69981C12.8215 1.19655 11.4516 -0.0142289 10.5 0.000126548C9.54844 -0.0142289 8.17893 1.19655 7.48904 1.69981C7.35902 1.79415 7.24295 1.87864 7.11826 1.96888H3.9375C2.85018 1.96888 1.96875 2.8503 1.96875 3.93763V5.74806C1.46139 6.13073 1.11727 6.39897 0.754277 6.68362C0.519323 6.86775 0.329321 7.10291 0.198644 7.37129C0.0679681 7.63968 4.04335e-05 7.93427 0 8.23278L0 8.6696L3.9375 11.514V3.93763H17.0625V11.514L21 8.6696V8.23278C21 7.62821 20.7219 7.05686 20.2457 6.68362Z" fill="#99BCA5"/>
</svg>
