<svg width="20" height="20" viewBox="0 0 20 20" fill="none" xmlns="http://www.w3.org/2000/svg">
<path d="M20 5.76983C20.0017 6.07077 19.9183 6.36613 19.7591 6.62221C19.6 6.87828 19.3716 7.08474 19.1 7.21801L10.7269 11.3753C10.5016 11.4887 10.2525 11.5476 9.99999 11.5473C9.74744 11.5476 9.49838 11.4887 9.27306 11.3753L0.899997 7.21801C0.629241 7.0847 0.401446 6.87877 0.242392 6.62351C0.0833369 6.36825 -0.000614011 6.07386 1.20253e-05 5.77365C-0.0011543 5.47283 0.082542 5.1777 0.241617 4.92173C0.400692 4.66577 0.628767 4.4592 0.899997 4.32547L9.27306 0.168162C9.49865 0.0559988 9.74774 -0.00161004 9.99999 3.42341e-05C10.2522 -0.00161004 10.5013 0.0559988 10.7269 0.168162L19.1 4.32547C19.3707 4.45877 19.5985 4.66471 19.7576 4.91997C19.9166 5.17523 20.0006 5.46962 20 5.76983Z" fill="#F8ADAD"/>
<path d="M19.0961 8.54992C19.3674 8.68366 19.5955 8.89023 19.7545 9.14619C19.9136 9.40216 19.9973 9.69729 19.9961 9.99811C19.9968 10.2983 19.9128 10.5927 19.7537 10.848C19.5947 11.1032 19.3669 11.3092 19.0961 11.4425L10.7231 15.6036C10.4968 15.7139 10.2482 15.7714 9.99616 15.7717C9.74412 15.7714 9.49548 15.7139 9.26923 15.6036L0.896162 11.4425C0.625869 11.3089 0.398642 11.1029 0.240247 10.8476C0.0818518 10.5923 -0.0013563 10.298 2.70039e-05 9.99811C-0.00172405 9.69717 0.0817168 9.4018 0.240857 9.14573C0.399998 8.88966 0.628411 8.6832 0.900012 8.54992L0.984639 8.50789L2.70386 9.36381L8.92692 12.4512C9.25893 12.6162 9.62492 12.7025 9.99616 12.7034C10.3686 12.7026 10.7358 12.6162 11.0692 12.4512L19.0115 8.50789L19.0961 8.54992Z" fill="#F8ADAD"/>
<path d="M19.0961 12.7782C19.3669 12.9115 19.5947 13.1174 19.7537 13.3727C19.9128 13.628 19.9968 13.9224 19.9962 14.2226C19.9968 14.5228 19.9128 14.8172 19.7537 15.0724C19.5947 15.3277 19.3669 15.5336 19.0961 15.6669L10.7231 19.8281C10.4978 19.9414 10.2487 20.0003 9.99617 20C9.74362 20.0003 9.49456 19.9414 9.26925 19.8281L0.896178 15.6669C0.625885 15.5334 0.398657 15.3273 0.240262 15.072C0.0818673 14.8167 -0.00134083 14.5225 4.24733e-05 14.2226C-0.00215186 13.9225 0.0807201 13.6279 0.239206 13.3725C0.397692 13.117 0.62537 12.9111 0.896178 12.7782L0.984655 12.7323L8.93078 16.6795C9.26185 16.8429 9.62651 16.9279 9.99617 16.9279C10.367 16.9275 10.7328 16.8425 11.0654 16.6795L17.2923 13.5883L19.0077 12.7323L19.0961 12.7782Z" fill="#F8ADAD"/>
</svg>
