<svg width="20" height="20" viewBox="0 0 20 20" fill="none" xmlns="http://www.w3.org/2000/svg">
<path d="M19.2502 6.68195H11.5464C11.3475 6.68195 11.1568 6.76254 11.0162 6.906C10.8756 7.04946 10.7966 7.24403 10.7966 7.44691V19.235C10.7972 19.4377 10.8764 19.6319 11.0169 19.7753C11.1574 19.9186 11.3477 19.9994 11.5464 20H19.2502C19.4489 19.9994 19.6393 19.9186 19.7797 19.7753C19.9202 19.6319 19.9994 19.4377 20 19.235V7.44691C20 7.24403 19.921 7.04946 19.7804 6.906C19.6398 6.76254 19.4491 6.68195 19.2502 6.68195Z" fill="#F8ADAD"/>
<path d="M19.2502 0H11.5464C11.3475 0 11.1568 0.0805938 11.0162 0.224053C10.8756 0.367512 10.7966 0.562084 10.7966 0.764966V4.69306C10.7972 4.89576 10.8764 5.08998 11.0169 5.23331C11.1574 5.37664 11.3477 5.45742 11.5464 5.45803H19.2502C19.4489 5.45742 19.6393 5.37664 19.7797 5.23331C19.9202 5.08998 19.9994 4.89576 20 4.69306V0.764966C20 0.562084 19.921 0.367512 19.7804 0.224053C19.6398 0.0805938 19.4491 0 19.2502 0Z" fill="#F8ADAD"/>
<path d="M8.44986 11.9067H0.749766C0.335682 11.9067 0 12.2492 0 12.6717V19.2198C0 19.6423 0.335682 19.9848 0.749766 19.9848H8.44986C8.86395 19.9848 9.19963 19.6423 9.19963 19.2198V12.6717C9.19963 12.2492 8.86395 11.9067 8.44986 11.9067Z" fill="#F8ADAD"/>
<path d="M8.81485 4.7186e-06H0.782157C0.679342 -0.000349088 0.577463 0.0191971 0.482405 0.0575149C0.387347 0.0958327 0.300981 0.152159 0.22828 0.223264C0.155578 0.294368 0.0979738 0.378835 0.0587951 0.471805C0.0196164 0.564775 -0.000356928 0.664414 4.82743e-06 0.76497V9.91778C4.82743e-06 10.1207 0.0824093 10.3152 0.229091 10.4587C0.375773 10.6022 0.574717 10.6827 0.782157 10.6827H8.81485C9.02229 10.6827 9.22123 10.6022 9.36791 10.4587C9.51459 10.3152 9.597 10.1207 9.597 9.91778V0.76497C9.59736 0.664414 9.57737 0.564775 9.5382 0.471805C9.49902 0.378835 9.44142 0.294368 9.36872 0.223264C9.29602 0.152159 9.20966 0.0958327 9.1146 0.0575149C9.01954 0.0191971 8.91766 -0.000349088 8.81485 4.7186e-06Z" fill="#F8ADAD"/>
</svg>
