<svg width="40" height="39" viewBox="0 0 40 39" fill="none" xmlns="http://www.w3.org/2000/svg">
<path d="M37.7778 18.1617L37.7778 19.8177C37.7756 23.6992 36.5187 27.4761 34.1946 30.585C31.8705 33.6938 28.6037 35.9681 24.8815 37.0687C21.1592 38.1692 17.1809 38.0371 13.5399 36.6919C9.89886 35.3467 6.79021 32.8606 4.67756 29.6044C2.56491 26.3481 1.56146 22.4962 1.81685 18.623C2.07224 14.7499 3.5728 11.0631 6.09473 8.11241C8.61667 5.16175 12.0248 3.10536 15.811 2.24994C19.5971 1.39451 23.5583 1.78588 27.1038 3.36568" stroke="#00960A" stroke-width="2" stroke-linecap="round" stroke-linejoin="round"/>
<path d="M37.7779 5.41748L19.7779 23.4355L14.3779 18.0355" stroke="#00960A" stroke-width="3" stroke-linecap="round" stroke-linejoin="round"/>
</svg>
