<svg width="22" height="19" viewBox="0 0 22 19" fill="none" xmlns="http://www.w3.org/2000/svg">
<path d="M14.5012 4.44466C14.5012 4.21495 14.4101 3.99253 14.246 3.82846L10.6764 0.25523C10.5123 0.0911537 10.2899 0 10.0566 0H9.83414V4.66707H14.5012V4.44466ZM21.3195 11.2301L17.8302 7.71525C17.4619 7.34699 16.8311 7.60587 16.8311 8.12727V10.5009H14.4976V12.8344H16.8311V15.2117C16.8311 15.7331 17.4619 15.992 17.8302 15.6238L21.3195 12.1052C21.5602 11.8646 21.5602 11.4708 21.3195 11.2301ZM7.50061 12.2511V11.0843C7.50061 10.7634 7.76313 10.5009 8.08399 10.5009H14.5012V5.83384H9.54245C9.06116 5.83384 8.66738 5.44006 8.66738 4.95876V0H1.37508C0.890138 0 0.5 0.390138 0.5 0.875076V17.7932C0.5 18.2781 0.890138 18.6683 1.37508 18.6683H13.6261C14.1111 18.6683 14.5012 18.2781 14.5012 17.7932V12.8344H8.08399C7.76313 12.8344 7.50061 12.5719 7.50061 12.2511Z" fill="#44C8F5"/>
</svg>
