<svg width="17" height="17" viewBox="0 0 17 17" fill="none" xmlns="http://www.w3.org/2000/svg">
<path d="M1.5 4H3.05556H15.5" stroke="#8A92A6" stroke-width="1.5" stroke-linecap="round" stroke-linejoin="round"/>
<path d="M13.9446 4V14.5C13.9446 14.8978 13.7807 15.2794 13.4889 15.5607C13.1972 15.842 12.8016 16 12.389 16H4.61122C4.19866 16 3.803 15.842 3.51128 15.5607C3.21955 15.2794 3.05566 14.8978 3.05566 14.5V4M5.389 4V2.5C5.389 2.10218 5.55289 1.72064 5.84461 1.43934C6.13633 1.15804 6.53199 1 6.94455 1H10.0557C10.4682 1 10.8639 1.15804 11.1556 1.43934C11.4473 1.72064 11.6112 2.10218 11.6112 2.5V4" stroke="#8A92A6" stroke-width="1.5" stroke-linecap="round" stroke-linejoin="round"/>
<path d="M6.94434 7.75V12.25" stroke="#8A92A6" stroke-width="1.5" stroke-linecap="round" stroke-linejoin="round"/>
<path d="M10.0557 7.75V12.25" stroke="#8A92A6" stroke-width="1.5" stroke-linecap="round" stroke-linejoin="round"/>
</svg>
