<svg width="17" height="11" viewBox="0 0 17 11" fill="none" xmlns="http://www.w3.org/2000/svg">
<path fill-rule="evenodd" clip-rule="evenodd" d="M9.56859 2.50971L16.5 0.5L14.7748 7.50763L12.6225 5.4415L9.15087 9.05783C9.03301 9.1806 8.87018 9.25 8.7 9.25C8.52982 9.25 8.36699 9.1806 8.24913 9.05783L5.7 6.40249L1.95087 10.3078C1.71182 10.5568 1.31618 10.5649 1.06717 10.3259C0.818161 10.0868 0.810087 9.69117 1.04913 9.44217L5.24913 5.06717C5.36699 4.9444 5.52982 4.875 5.7 4.875C5.87018 4.875 6.03301 4.9444 6.15087 5.06717L8.7 7.72251L11.7208 4.57584L9.56859 2.50971Z" fill="#357B4C"/>
</svg>
