<svg width="21" height="21" viewBox="0 0 21 21" fill="none" xmlns="http://www.w3.org/2000/svg">
<path d="M20.475 13.5505H19.95V10.0035C19.95 9.58677 19.7827 9.18646 19.4873 8.89114L16.2094 5.61317C15.9141 5.31786 15.5137 5.15052 15.097 5.15052H13.65V3.57552C13.65 2.70599 12.9445 2.00052 12.075 2.00052H1.575C0.705469 2.00052 0 2.70599 0 3.57552V14.0755C0 14.9451 0.705469 15.6505 1.575 15.6505H2.1C2.1 17.3896 3.51094 18.8005 5.25 18.8005C6.98906 18.8005 8.4 17.3896 8.4 15.6505H12.6C12.6 17.3896 14.0109 18.8005 15.75 18.8005C17.4891 18.8005 18.9 17.3896 18.9 15.6505H20.475C20.7637 15.6505 21 15.4143 21 15.1255V14.0755C21 13.7868 20.7637 13.5505 20.475 13.5505ZM5.25 17.2255C4.38047 17.2255 3.675 16.5201 3.675 15.6505C3.675 14.781 4.38047 14.0755 5.25 14.0755C6.11953 14.0755 6.825 14.781 6.825 15.6505C6.825 16.5201 6.11953 17.2255 5.25 17.2255ZM15.75 17.2255C14.8805 17.2255 14.175 16.5201 14.175 15.6505C14.175 14.781 14.8805 14.0755 15.75 14.0755C16.6195 14.0755 17.325 14.781 17.325 15.6505C17.325 16.5201 16.6195 17.2255 15.75 17.2255ZM18.375 10.4005H13.65V6.72552H15.097L18.375 10.0035V10.4005Z" fill="#357B4C"/>
</svg>
