<svg width="22" height="21" viewBox="0 0 22 21" fill="none" xmlns="http://www.w3.org/2000/svg">
<path d="M20.3637 14.2502C20.4491 13.7875 20.4491 13.3149 20.3637 12.8522L21.2104 12.3633C21.3088 12.3075 21.3515 12.1926 21.3187 12.0843C21.0988 11.3755 20.7214 10.7323 20.2292 10.2007C20.1537 10.1187 20.0323 10.099 19.9338 10.1548L19.0872 10.6437C18.7295 10.3385 18.3193 10.1023 17.8763 9.94474V8.96683C17.8763 8.85525 17.7975 8.75681 17.6892 8.73383C16.9574 8.56976 16.2125 8.57632 15.5168 8.73383C15.4085 8.75681 15.3298 8.85525 15.3298 8.96683V9.94474C14.8867 10.1023 14.4766 10.3385 14.1189 10.6437L13.2722 10.1548C13.177 10.099 13.0523 10.1187 12.9769 10.2007C12.4846 10.7323 12.1072 11.3755 11.8874 12.0843C11.8546 12.1926 11.9005 12.3075 11.9957 12.3633L12.8423 12.8522C12.757 13.3149 12.757 13.7875 12.8423 14.2502L11.9957 14.7392C11.8972 14.7949 11.8546 14.9098 11.8874 15.0181C12.1072 15.7269 12.4846 16.3668 12.9769 16.9017C13.0523 16.9838 13.1738 17.0035 13.2722 16.9477L14.1189 16.4587C14.4766 16.7639 14.8867 17.0002 15.3298 17.1577V18.1356C15.3298 18.2472 15.4085 18.3456 15.5168 18.3686C16.2486 18.5327 16.9935 18.5261 17.6892 18.3686C17.7975 18.3456 17.8763 18.2472 17.8763 18.1356V17.1577C18.3193 17.0002 18.7295 16.7639 19.0872 16.4587L19.9338 16.9477C20.029 17.0035 20.1537 16.9838 20.2292 16.9017C20.7214 16.3701 21.0988 15.7269 21.3187 15.0181C21.3515 14.9098 21.3055 14.7949 21.2104 14.7392L20.3637 14.2502ZM16.6063 15.1428C15.7268 15.1428 15.0147 14.4274 15.0147 13.5512C15.0147 12.675 15.7301 11.9596 16.6063 11.9596C17.4825 11.9596 18.1979 12.675 18.1979 13.5512C18.1979 14.4274 17.4858 15.1428 16.6063 15.1428ZM7.68036 10.4009C10.0005 10.4009 11.8808 8.52053 11.8808 6.20044C11.8808 3.88035 10.0005 2 7.68036 2C5.36028 2 3.47992 3.88035 3.47992 6.20044C3.47992 8.52053 5.36028 10.4009 7.68036 10.4009ZM14.2829 17.8337C14.2075 17.7943 14.132 17.7484 14.0598 17.7057L13.8005 17.8567C13.6036 17.9682 13.3805 18.0306 13.1573 18.0306C12.7997 18.0306 12.4551 17.8796 12.209 17.6171C11.6084 16.9674 11.149 16.1765 10.8898 15.3331C10.7093 14.7523 10.9521 14.1386 11.4772 13.8334L11.7364 13.6825C11.7331 13.5972 11.7331 13.5118 11.7364 13.4265L11.4772 13.2756C10.9521 12.9737 10.7093 12.3567 10.8898 11.7759C10.9193 11.6807 10.962 11.5855 10.9948 11.4904C10.8701 11.4805 10.7487 11.451 10.6207 11.451H10.0726C9.34413 11.7857 8.53358 11.9761 7.68036 11.9761C6.82715 11.9761 6.01988 11.7857 5.28808 11.451H4.74005C2.30511 11.451 0.32959 13.4265 0.32959 15.8615V17.2266C0.32959 18.0962 1.03513 18.8018 1.90476 18.8018H13.456C13.7874 18.8018 14.0959 18.6968 14.3486 18.5228C14.3092 18.3981 14.2829 18.2702 14.2829 18.1356V17.8337Z" fill="#8F9294"/>
</svg>
