<svg width="23" height="24" viewBox="0 0 23 24" fill="none" xmlns="http://www.w3.org/2000/svg">
<path d="M18.6022 0C16.1657 0 14.2044 2.01766 14.2044 4.51948C14.2044 7.02338 16.1657 9.03896 18.6022 9.03896C21.0387 9.03896 23 7.02338 23 4.51948C23 2.01766 21.0387 0 18.6022 0ZM20.6495 1.76675L21.4077 2.28519L17.8642 7.74545L15.0435 4.85195L15.6905 4.18701L17.7226 6.28052L20.6495 1.76675ZM13.7848 6.81039L7.80483 11.0649H0V12.9351H7.80483L13.7848 17.1896C14.0426 16.6182 14.3965 16.0987 14.8211 15.6571L9.68528 12L14.8211 8.34286C14.3965 7.9013 14.0426 7.38182 13.7848 6.81039ZM18.6022 14.961C16.1657 14.961 14.2044 16.9766 14.2044 19.4805C14.2044 21.9844 16.1657 24 18.6022 24C21.0387 24 23 21.9844 23 19.4805C23 16.9766 21.0387 14.961 18.6022 14.961ZM16.4993 16.6545L18.6022 18.8156L20.7051 16.6545L21.3521 17.3195L19.2492 19.4805L21.3521 21.6416L20.7051 22.3065L18.6022 20.1455L16.4993 22.3065L15.8523 21.6416L17.9552 19.4805L15.8523 17.3195L16.4993 16.6545Z" fill="#FFC000"/>
</svg>
