<svg width="37" height="37" viewBox="0 0 37 37" fill="none" xmlns="http://www.w3.org/2000/svg">
<path d="M15.8813 6.64865L2.91044 30.8627C2.64301 31.3805 2.50151 31.9677 2.50001 32.5657C2.49851 33.1637 2.63707 33.7518 2.90191 34.2713C3.16674 34.7909 3.54861 35.2238 4.00953 35.5271C4.47045 35.8304 4.99436 35.9934 5.52912 36H31.4709C32.0056 35.9934 32.5295 35.8304 32.9905 35.5271C33.4514 35.2238 33.8333 34.7909 34.0981 34.2713C34.3629 33.7518 34.5015 33.1637 34.5 32.5657C34.4985 31.9677 34.357 31.3805 34.0896 30.8627L21.1187 6.64865C20.8457 6.14537 20.4613 5.72927 20.0026 5.44049C19.5439 5.15171 19.0264 5 18.5 5C17.9736 5 17.4561 5.15171 16.9974 5.44049C16.5387 5.72927 16.1543 6.14537 15.8813 6.64865Z" stroke="#FFDB2F" stroke-width="2" stroke-linecap="round" stroke-linejoin="round"/>
<path d="M18.5 12L18.5 22" stroke="#FFDB2F" stroke-width="2" stroke-linecap="round" stroke-linejoin="round"/>
<path d="M18.6484 29.3223H18.6638" stroke="#FFDB2F" stroke-width="5" stroke-linecap="round" stroke-linejoin="round"/>
</svg>
