<svg width="21" height="22" viewBox="0 0 21 22" fill="none" xmlns="http://www.w3.org/2000/svg">
<path d="M10.5 0.5C4.70104 0.5 0 5.20099 0 11C0 16.799 4.70104 21.5 10.5 21.5C16.299 21.5 21 16.799 21 11C21 5.20104 16.299 0.5 10.5 0.5ZM16.0086 5.49139C18.7796 8.26238 18.9723 12.4976 16.884 15.468L6.032 4.616C9.00434 2.52633 13.2391 2.72198 16.0086 5.49139ZM4.99139 16.5086C2.22041 13.7376 2.02769 9.50235 4.11596 6.53204L14.968 17.384C11.9957 19.4737 7.76086 19.2781 4.99139 16.5086Z" fill="white"/>
</svg>
