<svg width="17" height="22" viewBox="0 0 17 22" fill="none" xmlns="http://www.w3.org/2000/svg">
<path d="M15.3391 15.9999H12.4741V12.9539C12.4781 12.7689 12.4087 12.5898 12.2811 12.4559C12.2222 12.3904 12.1499 12.3382 12.0692 12.3028C11.9885 12.2675 11.9012 12.2498 11.8131 12.2509C11.7248 12.2496 11.6373 12.2673 11.5564 12.3026C11.4755 12.338 11.4031 12.3902 11.3441 12.4559C11.2165 12.5898 11.1471 12.7689 11.1511 12.9539V16.0009H8.4331C8.345 15.9998 8.25767 16.0175 8.17697 16.0528C8.09626 16.0882 8.02403 16.1404 7.9651 16.2059C7.83748 16.3398 7.76809 16.5189 7.7721 16.7039C7.76809 16.8889 7.83748 17.0679 7.9651 17.2019C8.02403 17.2674 8.09626 17.3196 8.17697 17.3549C8.25767 17.3903 8.345 17.408 8.4331 17.4069H11.1511V20.2969C11.1471 20.4819 11.2165 20.6609 11.3441 20.7949C11.4031 20.8605 11.4755 20.9128 11.5564 20.9481C11.6373 20.9835 11.7248 21.0011 11.8131 20.9999C11.9961 20.9999 12.1531 20.9319 12.2811 20.7949C12.4087 20.6609 12.4781 20.4819 12.4741 20.2969V17.4069H15.3391C15.4272 17.4079 15.5145 17.3902 15.5952 17.3548C15.6759 17.3195 15.7481 17.2673 15.8071 17.2019C15.9347 17.0679 16.0041 16.8889 16.0001 16.7039C16.0041 16.5189 15.9347 16.3398 15.8071 16.2059C15.7482 16.1404 15.676 16.0882 15.5952 16.0528C15.5145 16.0175 15.4272 15.9998 15.3391 16.0009V15.9999ZM15.8551 6.02687L11.8301 1.48087L11.3901 1.00187H2.2801C2.1101 1.00187 1.9201 0.991872 1.7541 1.01887C1.55494 1.04715 1.37292 1.14705 1.2421 1.29987C0.961104 1.61787 1.0021 2.01687 1.0021 2.40787V19.5929C1.0021 19.9839 0.957104 20.4069 1.2421 20.7029C1.5271 20.9989 1.7181 20.9989 2.0851 20.9989H7.1101C7.19837 21.0001 7.28586 20.9824 7.36675 20.947C7.44763 20.9117 7.52003 20.8595 7.5791 20.7939C7.70673 20.6599 7.77612 20.4809 7.7721 20.2959C7.77612 20.1109 7.70673 19.9318 7.5791 19.7979C7.52007 19.7322 7.44768 19.68 7.36678 19.6446C7.28589 19.6093 7.19838 19.5916 7.1101 19.5929H2.3451L2.3391 2.36387H9.6141V5.95687C9.6141 6.34787 9.7661 6.69987 10.0051 6.95287C10.2451 7.20587 10.5751 7.36287 10.9421 7.36287H14.6771V11.5479C14.6731 11.7329 14.7425 11.9119 14.8701 12.0459C14.929 12.1114 15.0013 12.1636 15.082 12.1989C15.1627 12.2343 15.25 12.252 15.3381 12.2509C15.5221 12.2509 15.6781 12.1819 15.8071 12.0459C15.9344 11.9117 16.0034 11.7327 15.9991 11.5479V6.47487L16.0001 6.19587L15.8551 6.02687ZM11.0181 5.85487C10.9771 5.80187 10.9521 5.70887 10.9431 5.57487V2.51987L14.0021 5.95687H11.2601C11.1401 5.94087 11.0601 5.90787 11.0181 5.85487Z" fill="white" stroke="white" stroke-width="0.5"/>
</svg>
