<svg width="24" height="25" viewBox="0 0 24 25" fill="none" xmlns="http://www.w3.org/2000/svg">
<path d="M5 21.5C4.45 21.5 3.979 21.304 3.587 20.912C3.195 20.52 2.99934 20.0493 3 19.5V5.5C3 4.95 3.196 4.479 3.588 4.087C3.98 3.695 4.45067 3.49934 5 3.5H16.175C16.4417 3.5 16.696 3.55 16.938 3.65C17.18 3.75 17.3923 3.89167 17.575 4.075L20.425 6.925C20.6083 7.10834 20.75 7.321 20.85 7.563C20.95 7.805 21 8.059 21 8.325V19.5C21 20.05 20.804 20.521 20.412 20.913C20.02 21.305 19.5493 21.5007 19 21.5H5ZM19 8.35L16.15 5.5H5V19.5H19V8.35ZM12 18.5C12.8333 18.5 13.5417 18.2083 14.125 17.625C14.7083 17.0417 15 16.3333 15 15.5C15 14.6667 14.7083 13.9583 14.125 13.375C13.5417 12.7917 12.8333 12.5 12 12.5C11.1667 12.5 10.4583 12.7917 9.875 13.375C9.29167 13.9583 9 14.6667 9 15.5C9 16.3333 9.29167 17.0417 9.875 17.625C10.4583 18.2083 11.1667 18.5 12 18.5ZM7 10.5H14C14.2833 10.5 14.521 10.404 14.713 10.212C14.905 10.02 15.0007 9.78267 15 9.5V7.5C15 7.21667 14.904 6.979 14.712 6.787C14.52 6.595 14.2827 6.49934 14 6.5H7C6.71667 6.5 6.479 6.596 6.287 6.788C6.095 6.98 5.99934 7.21734 6 7.5V9.5C6 9.78334 6.096 10.021 6.288 10.213C6.48 10.405 6.71734 10.5007 7 10.5ZM5 8.35V19.5V5.5V8.35Z" fill="white"/>
</svg>
