<svg width="17" height="20" viewBox="0 0 17 20" fill="none" xmlns="http://www.w3.org/2000/svg">
<path d="M16.1709 5.01563C16.3052 5.14955 16.3814 5.33036 16.3814 5.52009V19.2857C16.3814 19.6808 16.0612 20 15.6649 20H1.33514C0.938832 20 0.618652 19.6808 0.618652 19.2857V0.714286C0.618652 0.319196 0.938832 0 1.33514 0H10.8443C11.0346 0 11.2182 0.0758929 11.3525 0.209821L16.1709 5.01563ZM14.729 5.84821L10.5151 1.64732V5.84821H14.729ZM8.50001 11.2076L9.68244 15.6049C9.69773 15.6619 9.73148 15.7123 9.77845 15.7482C9.82541 15.7842 9.88296 15.8036 9.94216 15.8036H10.6535C10.7126 15.8036 10.7701 15.7842 10.8171 15.7484C10.8641 15.7126 10.8979 15.6623 10.9132 15.6054L12.5784 9.44464C12.5844 9.42192 12.5874 9.39851 12.5873 9.375C12.5873 9.30396 12.559 9.23583 12.5086 9.1856C12.4583 9.13536 12.3899 9.10714 12.3187 9.10714H11.5222C11.4614 9.10712 11.4024 9.12765 11.3548 9.1654C11.3072 9.20315 11.2739 9.25587 11.2603 9.31496L10.2352 13.7592L9.12111 9.31005C9.10658 9.2521 9.07304 9.20065 9.02582 9.16389C8.9786 9.12713 8.9204 9.10715 8.86049 9.10714H8.13953C8.07958 9.10716 8.02136 9.12717 7.97414 9.16398C7.92691 9.20078 7.89339 9.25228 7.8789 9.31027L6.76701 13.7502L5.73482 9.31473C5.72111 9.25581 5.68781 9.20324 5.64033 9.16559C5.59284 9.12794 5.53397 9.10742 5.4733 9.10737H4.68091C4.6574 9.10737 4.63399 9.11044 4.61128 9.11652C4.54249 9.13498 4.48388 9.17991 4.44832 9.24144C4.41275 9.30297 4.40315 9.37606 4.42163 9.44464L6.08231 15.6054C6.09767 15.6622 6.13139 15.7124 6.17826 15.7483C6.22512 15.7841 6.28253 15.8035 6.34159 15.8036H7.05785C7.11701 15.8036 7.17451 15.7841 7.22144 15.7482C7.26836 15.7122 7.30207 15.6619 7.31736 15.6049L8.49978 11.2076H8.50001Z" fill="#0965BA"/>
</svg>
