<svg width="21" height="21" viewBox="0 0 21 21" fill="none" xmlns="http://www.w3.org/2000/svg">
<path fill-rule="evenodd" clip-rule="evenodd" d="M13.0309 11.057L15.0673 17.9807L8.05304 16.2824L10.1109 14.1223L6.48119 10.6645C6.35797 10.5472 6.28794 10.3846 6.28728 10.2144C6.28663 10.0442 6.3554 9.88114 6.47771 9.76281L9.12322 7.20347L5.20346 3.46941C4.95354 3.23132 4.94394 2.83571 5.18203 2.58579C5.42011 2.33586 5.81572 2.32626 6.06565 2.56435L10.4568 6.74747C10.58 6.86485 10.65 7.02741 10.6507 7.19759C10.6514 7.36777 10.5826 7.53086 10.4603 7.64919L7.81476 10.2085L10.973 13.2172L13.0309 11.057Z" fill="#FF3C3C"/>
</svg>
