<svg width="20" height="21" viewBox="0 0 20 21" fill="none" xmlns="http://www.w3.org/2000/svg">
<path fill-rule="evenodd" clip-rule="evenodd" d="M10.5686 7.50971L17.5 5.5L15.7748 12.5076L13.6225 10.4415L10.1509 14.0578C10.033 14.1806 9.87018 14.25 9.7 14.25C9.52982 14.25 9.36699 14.1806 9.24913 14.0578L6.7 11.4025L2.95087 15.3078C2.71182 15.5568 2.31618 15.5649 2.06717 15.3259C1.81816 15.0868 1.81009 14.6912 2.04913 14.4422L6.24913 10.0672C6.36699 9.9444 6.52982 9.875 6.7 9.875C6.87018 9.875 7.03301 9.9444 7.15087 10.0672L9.7 12.7225L12.7208 9.57584L10.5686 7.50971Z" fill="#357B4C"/>
</svg>
