<svg width="18" height="18" viewBox="0 0 18 18" fill="none" xmlns="http://www.w3.org/2000/svg">
<path d="M11.7449 15.0255L9.00053 12.0318C8.45916 11.4412 7.65062 11.3262 6.99911 11.6764L4.50085 8.95111V7.36348L1.50106 4.90918L0.00117177 6.54538L2.25101 9.81778H3.70638L6.20463 12.5431C5.88591 13.2538 5.98902 14.1358 6.53039 14.7264L9.27473 17.7201C9.61689 18.0934 10.17 18.0934 10.5098 17.7201L11.7449 16.3728C12.0847 15.9996 12.0847 15.3962 11.7449 15.0255ZM7.77483 10.6614C8.43807 10.6614 9.06146 10.9427 9.53018 11.454L9.98483 11.95C10.3551 11.7736 10.7067 11.5281 11.0113 11.1958C11.8808 10.2473 12.1761 8.91276 11.8995 7.70095C11.848 7.47086 11.5832 7.3916 11.4285 7.56034L9.68485 9.46242L8.09356 9.17353L7.82874 7.43762L9.57236 5.53554C9.72704 5.3668 9.65204 5.07791 9.43878 5.01911C8.32792 4.71999 7.10457 5.04212 6.23744 5.98805C5.56952 6.71667 5.25548 7.67794 5.27189 8.63665L7.19597 10.7356C7.3858 10.687 7.58266 10.6614 7.77483 10.6614ZM5.33985 12.7578L4.01104 11.3083L0.439422 15.207C-0.146474 15.8462 -0.146474 16.8816 0.439422 17.5207C1.02532 18.1599 1.97447 18.1599 2.56036 17.5207L5.45703 14.3608C5.27892 13.852 5.22502 13.2973 5.33985 12.7578ZM1.50106 16.9762C1.19171 16.9762 0.938605 16.7001 0.938605 16.3626C0.938605 16.0226 1.18937 15.749 1.50106 15.749C1.81276 15.749 2.06352 16.0226 2.06352 16.3626C2.06352 16.7001 1.81276 16.9762 1.50106 16.9762Z" fill="#FE7F2E"/>
<path d="M17.9999 4.0909C17.9999 6.35075 16.3208 8.1818 14.2499 8.1818C12.1791 8.1818 10.5 6.35075 10.5 4.0909C10.5 1.83238 12.1791 0 14.2499 0C16.3208 0 17.9999 1.83238 17.9999 4.0909ZM14.3506 1.35264C13.5265 1.35264 13.001 1.73133 12.5883 2.40436C12.5348 2.49156 12.5527 2.60915 12.6293 2.67255L13.154 3.10655C13.2327 3.17165 13.3448 3.15616 13.406 3.07154C13.6761 2.69778 13.8613 2.48105 14.2724 2.48105C14.5813 2.48105 14.9634 2.69793 14.9634 3.02471C14.9634 3.27175 14.7765 3.39862 14.4715 3.58516C14.1158 3.80269 13.6451 4.07343 13.6451 4.75072V4.81671C13.6451 4.92602 13.7264 5.01465 13.8266 5.01465H14.6733C14.7735 5.01465 14.8548 4.92602 14.8548 4.81671V4.79472C14.8548 4.32522 16.1126 4.30567 16.1126 3.03519C16.1126 2.07841 15.2029 1.35264 14.3506 1.35264ZM14.2499 5.44354C13.8664 5.44354 13.5544 5.78393 13.5544 6.20234C13.5544 6.62073 13.8664 6.96113 14.2499 6.96113C14.6335 6.96113 14.9455 6.62073 14.9455 6.20234C14.9455 5.78393 14.6335 5.44354 14.2499 5.44354Z" fill="#FE7F2E"/>
</svg>
