<svg width="123" height="116" viewBox="0 0 123 116" fill="none" xmlns="http://www.w3.org/2000/svg">
<path fill-rule="evenodd" clip-rule="evenodd" d="M51.8705 30.8524C51.2604 31.5102 60.0528 47.2811 60.9717 48.9136L65.3017 43.7069L67.3822 41.1788V40.3466H68.0732L74.9028 32.1362C75.7335 31.0029 76.5642 29.8697 77.4832 28.8315C78.6741 27.4287 79.8651 26.0656 81.0854 24.6946L81.1148 24.6312C83.9452 21.477 86.8343 18.3545 89.5249 15.026C89.6646 14.8437 92.2744 11.6578 92.1053 11.4835C90.885 10.2947 89.7455 9.1931 88.606 8.09152C88.6942 7.94094 88.7163 7.76659 88.8045 7.76659C94.6563 5.76947 100.515 3.80404 106.367 1.83862C106.448 1.81485 106.588 1.90202 106.786 1.9575C105.588 8.32927 104.397 14.6931 103.147 21.4532C101.986 20.4071 101.037 19.6384 100.177 18.7745C99.376 17.9662 98.7658 17.9979 98.0453 18.8934C96.0163 21.4532 93.9359 23.9496 91.826 26.4222C91.2158 27.1355 90.5762 27.8488 89.966 28.5937C88.4663 30.3214 86.9446 32.0411 85.4155 33.7688C83.4747 35.972 81.5045 38.1435 79.5342 40.3466C77.395 42.6925 75.2924 45.0779 73.212 47.4554C71.5726 49.3337 69.9332 51.204 68.2717 53.0822C67.9924 53.4072 67.6836 53.7321 67.4116 54.065C66.3015 55.3409 65.1915 56.6485 64.0814 57.9324C63.2433 58.8834 62.3832 59.8344 61.5231 60.8171C60.1704 62.3308 58.8104 63.9079 57.3106 65.6039C56.5314 63.0203 55.7815 60.4922 55.0023 57.9324C53.282 52.2184 51.5912 46.5599 49.8415 40.6716C45.3792 44.8401 41.1594 48.7948 36.9396 52.7494C35.7781 53.7955 34.6386 54.8654 33.4697 55.9036C33.4697 55.9036 33.4697 55.9036 33.4477 55.9353C32.3082 56.9814 31.1687 58.0196 30.0586 59.0895C24.8979 63.7653 19.7665 68.4331 14.6058 73.1089C14.1573 73.521 13.6648 73.9094 13.1869 74.2977C13.0766 74.1788 12.9958 74.06 12.8855 73.9411C25.8389 59.6284 38.829 45.2523 51.8705 30.8524ZM122.408 46.9799C121.048 64.534 111.499 84.0218 97.516 96.1947V28.6254H93.9358C91.1349 31.8985 88.2164 35.1715 85.3934 38.3495V104.262C84.4745 104.706 83.5335 105.095 82.5851 105.475C81.5633 105.863 80.534 106.252 79.5048 106.577V44.8956C78.0934 46.4727 76.6745 48.0498 75.2924 49.6586C74.2338 50.8791 73.1825 52.0678 72.1239 53.2883L70.3816 55.2854L67.3822 58.7328L67.3528 109.018L72.3739 108.336C65.9928 109.493 61.5231 109.168 61.5231 109.168V65.4612C60.8614 66.23 60.1704 67.0066 59.4426 67.8071L56.0021 71.7062L51.8999 57.9879H49.3416V107.472C47.6214 107.028 45.9305 106.489 44.2691 105.895V65.9605H32.1391V99.6501C21.7367 92.5967 13.3266 81.9454 8.80541 68.5837C1.14514 46.1161 8.63633 16.4208 22.8174 0C3.3653 17.1103 -4.90515 46.1478 4.19602 72.9584C9.4744 88.4598 19.6268 100.538 32.1391 107.892V108.368H32.9478C47.6508 116.729 65.4929 118.631 82.3646 112.021C85.0258 110.983 87.6062 109.762 90.0543 108.368C92.6567 106.878 95.1562 105.213 97.4866 103.367C114.138 90.3302 123.54 68.9958 122.408 46.9799Z" fill="#F10035"/>
</svg>
